<svg width="169" height="110" viewBox="0 0 169 110" fill="none" xmlns="http://www.w3.org/2000/svg">
<rect width="169" height="110" fill="white"/>
<g clip-path="url(#clip0_1095_1546)">
<path d="M151.557 99.7966L151.765 99.7925C151.684 97.4765 151.437 95.1692 151.026 92.8886C150.125 88.0058 148.627 84.7991 146.574 83.3574L146.454 83.5279C151.25 86.8955 151.554 99.6679 151.557 99.7966Z" fill="#F1F1F1"/>
<path d="M148.951 99.7464L149.159 99.7423C149.155 99.5116 149.025 94.0749 146.884 92.5723L146.765 92.7427C148.819 94.1848 148.95 99.6909 148.951 99.7464Z" fill="#F1F1F1"/>
<path d="M145.268 83.5479C145.843 83.5479 146.31 83.0816 146.31 82.5064C146.31 81.9311 145.843 81.4648 145.268 81.4648C144.693 81.4648 144.227 81.9311 144.227 82.5064C144.227 83.0816 144.693 83.5479 145.268 83.5479Z" fill="#F1F1F1"/>
<path d="M145.784 92.503C146.359 92.503 146.825 92.0367 146.825 91.4614C146.825 90.8862 146.359 90.4199 145.784 90.4199C145.208 90.4199 144.742 90.8862 144.742 91.4614C144.742 92.0367 145.208 92.503 145.784 92.503Z" fill="#F1F1F1"/>
<path d="M149.437 84.1708C149.333 84.9742 149.441 85.7909 149.751 86.5393C150.294 85.9333 150.649 85.1835 150.775 84.3802C150.9 83.5769 150.791 82.7544 150.46 82.0117C149.936 82.6294 149.583 83.3739 149.437 84.1708Z" fill="#F1F1F1"/>
<path d="M146.033 87.208C146.806 87.4508 147.629 87.4863 148.42 87.3111C147.918 86.6717 147.241 86.1911 146.472 85.9273C145.703 85.6635 144.874 85.6277 144.085 85.8242C144.602 86.4481 145.273 86.9253 146.033 87.208Z" fill="#F1F1F1"/>
<path d="M145.994 95.1406C146.536 95.3107 147.113 95.3356 147.667 95.2128C147.315 94.7646 146.841 94.4278 146.302 94.2429C145.763 94.058 145.182 94.0329 144.629 94.1706C144.991 94.6079 145.462 94.9424 145.994 95.1406Z" fill="#F1F1F1"/>
<path d="M62.8531 99.7965L62.5508 99.7905C62.6677 96.4288 63.0264 93.0799 63.6241 89.7697C64.9315 82.6825 67.1055 78.0281 70.0857 75.9355L70.2593 76.183C63.2975 81.071 62.8567 99.6097 62.8531 99.7965Z" fill="#F1F1F1"/>
<path d="M66.6324 99.7245L66.3301 99.7186C66.3366 99.3838 66.5255 91.4926 69.6321 89.3115L69.8057 89.559C66.8245 91.6521 66.6339 99.644 66.6324 99.7245Z" fill="#F1F1F1"/>
<path d="M71.9785 76.211C72.8134 76.211 73.4903 75.5341 73.4903 74.6992C73.4903 73.8643 72.8134 73.1875 71.9785 73.1875C71.1436 73.1875 70.4668 73.8643 70.4668 74.6992C70.4668 75.5341 71.1436 76.211 71.9785 76.211Z" fill="#F1F1F1"/>
<path d="M71.2295 89.211C72.0644 89.211 72.7412 88.5341 72.7412 87.6992C72.7412 86.8643 72.0644 86.1875 71.2295 86.1875C70.3946 86.1875 69.7178 86.8643 69.7178 87.6992C69.7178 88.5341 70.3946 89.211 71.2295 89.211Z" fill="#F1F1F1"/>
<path d="M65.9283 77.1172C66.0799 78.2833 65.9225 79.4688 65.472 80.555C64.6851 79.6754 64.1693 78.5871 63.9867 77.4212C63.8042 76.2552 63.9627 75.0613 64.4431 73.9834C65.204 74.8799 65.7162 75.9606 65.9283 77.1172Z" fill="#F1F1F1"/>
<path d="M70.869 81.524C69.7471 81.8764 68.5524 81.9279 67.4043 81.6736C68.1333 80.7455 69.1151 80.048 70.2314 79.665C71.3477 79.2821 72.5509 79.2302 73.6961 79.5154C72.9459 80.4209 71.971 81.1136 70.869 81.524Z" fill="#F1F1F1"/>
<path d="M70.9246 93.0379C70.1382 93.2849 69.3008 93.3211 68.4961 93.1428C69.007 92.4923 69.6952 92.0034 70.4776 91.735C71.2601 91.4666 72.1035 91.4302 72.9061 91.6301C72.3803 92.2648 71.697 92.7503 70.9246 93.0379Z" fill="#F1F1F1"/>
<path d="M39.4964 35.4188L38.769 30.9687L36.7151 30.4553C36.7151 30.4553 35.0851 29.9532 34.7041 33.2365C34.3231 36.5199 34.6184 42.6502 34.6184 42.6502L30.1091 56.9298C29.7629 57.0944 29.4714 57.3552 29.2695 57.6812C29.0677 58.0071 28.9641 58.3843 28.971 58.7676C28.978 59.1509 29.0953 59.524 29.3089 59.8424C29.5225 60.1608 29.8233 60.4108 30.1753 60.5627C30.5273 60.7145 30.9156 60.7617 31.2937 60.6985C31.6719 60.6354 32.0238 60.4646 32.3074 60.2066C32.5909 59.9487 32.7942 59.6144 32.8927 59.2439C32.9912 58.8735 32.9809 58.4824 32.863 58.1176L38.7262 44.704L39.4964 35.4188Z" fill="#FFB7B7"/>
<path d="M51.9865 31.9165L50.9082 27.5382L52.5955 26.2596C52.5955 26.2596 53.8975 25.1578 55.5371 28.0279C57.1767 30.898 59.312 36.6519 59.312 36.6519L69.0659 48.0143C69.449 48.0297 69.8195 48.1551 70.1331 48.3756C70.4467 48.5961 70.6901 48.9023 70.8342 49.2576C70.9783 49.6128 71.0169 50.0021 70.9455 50.3788C70.8741 50.7554 70.6956 51.1035 70.4315 51.3814C70.1673 51.6592 69.8287 51.8551 69.4562 51.9455C69.0836 52.0359 68.6929 52.017 68.3308 51.891C67.9687 51.7651 67.6506 51.5375 67.4145 51.2355C67.1784 50.9335 67.0343 50.5698 66.9996 50.188L56.3405 40.1537L51.9865 31.9165Z" fill="#FFB7B7"/>
<path d="M60.4146 97.4658L62.8605 97.4656L64.0242 88.0312L60.4141 88.0314L60.4146 97.4658Z" fill="#FFB7B7"/>
<path d="M59.79 96.6662L64.607 96.666H64.6072C65.4213 96.6661 66.2021 96.9895 66.7778 97.5651C67.3534 98.1408 67.6769 98.9216 67.6769 99.7357V99.8355L59.7902 99.8358L59.79 96.6662Z" fill="#2F2E41"/>
<path d="M29.69 97.4658L32.1359 97.4656L33.2996 88.0312L29.6895 88.0314L29.69 97.4658Z" fill="#FFB7B7"/>
<path d="M29.0664 96.6662L33.8834 96.666H33.8836C34.6977 96.6661 35.4785 96.9895 36.0541 97.5651C36.6298 98.1408 36.9532 98.9216 36.9533 99.7357V99.8355L29.0666 99.8358L29.0664 96.6662Z" fill="#2F2E41"/>
<path d="M44.6916 23.5317C48.3452 23.5317 51.3071 20.5699 51.3071 16.9162C51.3071 13.2626 48.3452 10.3008 44.6916 10.3008C41.038 10.3008 38.0762 13.2626 38.0762 16.9162C38.0762 20.5699 41.038 23.5317 44.6916 23.5317Z" fill="#2F2E41"/>
<path d="M39.5286 13.3487C40.5976 12.2797 40.8143 10.7631 40.0125 9.96129C39.2107 9.15952 37.6941 9.37617 36.6251 10.4452C35.5561 11.5142 35.3394 13.0308 36.1412 13.8326C36.943 14.6344 38.4596 14.4177 39.5286 13.3487Z" fill="#2F2E41"/>
<path d="M51.5873 11.249C52.0328 10.2062 51.2668 8.87949 49.8765 8.2856C48.4862 7.69171 46.998 8.05556 46.5526 9.09829C46.1072 10.141 46.8732 11.4678 48.2635 12.0617C49.6538 12.6556 51.1419 12.2917 51.5873 11.249Z" fill="#2F2E41"/>
<path d="M49.8281 21.1891C51.3155 18.4683 50.3155 15.057 47.5947 13.5696C44.8739 12.0823 41.4626 13.0823 39.9753 15.8031C38.4879 18.5239 39.4879 21.9352 42.2087 23.4225C44.9295 24.9098 48.3408 23.9099 49.8281 21.1891Z" fill="#FFB7B7"/>
<path d="M39.002 14.9636C40.2849 15.8478 41.8077 16.3184 43.3659 16.3122C42.8101 16.6976 42.1773 16.9579 41.5112 17.0753C43.583 17.5197 45.7241 17.5317 47.8007 17.1106C48.2623 17.0366 48.7077 16.8836 49.1174 16.6584C49.3215 16.5444 49.4994 16.3887 49.6394 16.2014C49.7794 16.0142 49.8784 15.7995 49.9301 15.5715C50.068 14.7832 49.4538 14.067 48.8154 13.5843C47.8381 12.8566 46.7112 12.3552 45.5163 12.1164C44.3214 11.8777 43.0883 11.9075 41.9063 12.2037C41.1346 12.4032 40.3614 12.7403 39.8601 13.3601C39.3588 13.9799 39.2103 14.9354 39.6879 15.5737L39.002 14.9636Z" fill="#2F2E41"/>
<path d="M42.088 25.7969L36.531 30.3352L41.3864 41.9124L41.479 43.7648C41.479 43.7648 36.4386 48.412 33.3199 61.3941C30.2012 74.3762 23.9023 91.6262 23.9023 91.6262L36.5036 94.7089L45.2649 65.3421L56.4336 88.3813L58.0224 95.1957L67.7633 92.4916L64.0039 74.2044L54.7835 45.8183L55.5406 37.9764C55.5406 37.9764 57.2279 34.0621 54.2967 29.9181L53.3773 26.0241L48.6181 25.2129L42.088 25.7969Z" fill="#2F2E41"/>
<path d="M135.533 66.9975H96.9521C96.644 66.9972 96.3486 66.8746 96.1308 66.6568C95.9129 66.4389 95.7904 66.1436 95.79 65.8355V52.8203C95.7904 52.5122 95.9129 52.2168 96.1308 51.999C96.3486 51.7811 96.644 51.6586 96.9521 51.6582H135.533C135.841 51.6586 136.136 51.7811 136.354 51.999C136.572 52.2168 136.695 52.5122 136.695 52.8203V65.8355C136.695 66.1436 136.572 66.4389 136.354 66.6568C136.136 66.8746 135.841 66.9972 135.533 66.9975Z" fill="#E5E5E5"/>
<path d="M112.059 55.1436H101.833V56.3056H112.059V55.1436Z" fill="white"/>
<path d="M125.539 56.538C125.924 56.538 126.236 56.2259 126.236 55.8408C126.236 55.4557 125.924 55.1436 125.539 55.1436C125.154 55.1436 124.842 55.4557 124.842 55.8408C124.842 56.2259 125.154 56.538 125.539 56.538Z" fill="#EEB7D6"/>
<path d="M127.862 56.538C128.247 56.538 128.56 56.2259 128.56 55.8408C128.56 55.4557 128.247 55.1436 127.862 55.1436C127.477 55.1436 127.165 55.4557 127.165 55.8408C127.165 56.2259 127.477 56.538 127.862 56.538Z" fill="#EEB7D6"/>
<path d="M130.187 56.538C130.572 56.538 130.884 56.2259 130.884 55.8408C130.884 55.4557 130.572 55.1436 130.187 55.1436C129.801 55.1436 129.489 55.4557 129.489 55.8408C129.489 56.2259 129.801 56.538 130.187 56.538Z" fill="#EEB7D6"/>
<path d="M135.533 83.4985H96.9521C96.644 83.4982 96.3486 83.3756 96.1308 83.1578C95.9129 82.9399 95.7904 82.6445 95.79 82.3364V69.3213C95.7904 69.0132 95.9129 68.7178 96.1308 68.4999C96.3486 68.2821 96.644 68.1595 96.9521 68.1592H135.533C135.841 68.1595 136.136 68.2821 136.354 68.4999C136.572 68.7178 136.695 69.0132 136.695 69.3213V82.3364C136.695 82.6445 136.572 82.9399 136.354 83.1578C136.136 83.3756 135.841 83.4982 135.533 83.4985Z" fill="#E5E5E5"/>
<path d="M112.059 71.6465H101.833V72.8086H112.059V71.6465Z" fill="white"/>
<path d="M125.539 73.041C125.924 73.041 126.236 72.7288 126.236 72.3437C126.236 71.9586 125.924 71.6465 125.539 71.6465C125.154 71.6465 124.842 71.9586 124.842 72.3437C124.842 72.7288 125.154 73.041 125.539 73.041Z" fill="#EEB7D6"/>
<path d="M127.862 73.041C128.247 73.041 128.56 72.7288 128.56 72.3437C128.56 71.9586 128.247 71.6465 127.862 71.6465C127.477 71.6465 127.165 71.9586 127.165 72.3437C127.165 72.7288 127.477 73.041 127.862 73.041Z" fill="#EEB7D6"/>
<path d="M130.187 73.041C130.572 73.041 130.884 72.7288 130.884 72.3437C130.884 71.9586 130.572 71.6465 130.187 71.6465C129.801 71.6465 129.489 71.9586 129.489 72.3437C129.489 72.7288 129.801 73.041 130.187 73.041Z" fill="#EEB7D6"/>
<path d="M135.533 99.9995H96.9521C96.644 99.9991 96.3486 99.8766 96.1308 99.6587C95.9129 99.4409 95.7904 99.1455 95.79 98.8374V85.8222C95.7904 85.5141 95.9129 85.2188 96.1308 85.0009C96.3486 84.7831 96.644 84.6605 96.9521 84.6602H135.533C135.841 84.6605 136.136 84.7831 136.354 85.0009C136.572 85.2188 136.695 85.5141 136.695 85.8222V98.8374C136.695 99.1455 136.572 99.4409 136.354 99.6587C136.136 99.8766 135.841 99.9991 135.533 99.9995Z" fill="#E5E5E5"/>
<path d="M112.059 88.1465H101.833V89.3086H112.059V88.1465Z" fill="white"/>
<path d="M125.539 89.541C125.924 89.541 126.236 89.2288 126.236 88.8437C126.236 88.4586 125.924 88.1465 125.539 88.1465C125.154 88.1465 124.842 88.4586 124.842 88.8437C124.842 89.2288 125.154 89.541 125.539 89.541Z" fill="#EEB7D6"/>
<path d="M127.862 89.541C128.247 89.541 128.56 89.2288 128.56 88.8437C128.56 88.4586 128.247 88.1465 127.862 88.1465C127.477 88.1465 127.165 88.4586 127.165 88.8437C127.165 89.2288 127.477 89.541 127.862 89.541Z" fill="#EEB7D6"/>
<path d="M130.187 89.541C130.572 89.541 130.884 89.2288 130.884 88.8437C130.884 88.4586 130.572 88.1465 130.187 88.1465C129.801 88.1465 129.489 88.4586 129.489 88.8437C129.489 89.2288 129.801 89.541 130.187 89.541Z" fill="#EEB7D6"/>
<path d="M89.2349 71.9355C88.5001 71.9331 87.7685 71.8384 87.0572 71.6538L86.917 71.615L86.787 71.5499C82.0854 69.1926 78.1189 66.0789 74.9977 62.2954C72.414 59.145 70.3996 55.5681 69.0452 51.7255C67.4254 47.1249 66.6462 42.2706 66.7446 37.3942C66.7466 37.2918 66.7483 37.2128 66.7483 37.1583C66.7483 34.7879 68.0641 32.708 70.1004 31.8595C71.6589 31.2102 85.8092 25.3981 86.8316 24.9781C88.757 24.0133 90.8112 24.8186 91.1399 24.9594C91.8772 25.2609 104.958 30.6112 107.785 31.9573C110.698 33.3446 111.476 35.8368 111.476 37.0907C111.476 42.7674 110.493 48.0727 108.554 52.8593C106.988 56.7337 104.768 60.3106 101.992 63.434C96.6356 69.4618 91.2778 71.5988 91.2261 71.6176C90.5857 71.8379 89.912 71.9455 89.2349 71.9355ZM87.975 68.8145C88.4395 68.9186 89.5089 69.0748 90.206 68.8205C91.0915 68.4976 95.5759 66.1722 99.7665 61.4563C105.556 54.9407 108.494 46.7499 108.498 37.1116C108.488 36.9164 108.349 35.5236 106.505 34.6454C103.733 33.3254 90.1364 27.7657 89.9994 27.7097L89.9618 27.6938C89.6769 27.5744 88.77 27.3229 88.1449 27.6504L88.0198 27.7088C87.8682 27.771 72.8475 33.9404 71.2455 34.6078C70.1249 35.0748 69.7256 36.2315 69.7256 37.1583C69.7256 37.2261 69.7239 37.3246 69.7214 37.4519C69.5933 44.0468 71.1194 60.2748 87.975 68.8145Z" fill="#3F3D56"/>
<path d="M87.4557 26.3328C87.4557 26.3328 72.2984 32.5581 70.6744 33.2347C69.0504 33.9114 68.2384 35.5354 68.2384 37.1594C68.2384 38.7834 67.0204 59.9743 87.4557 70.2201C87.4557 70.2201 89.3104 70.7333 90.7175 70.2201C92.1247 69.7069 109.989 61.0456 109.989 37.0917C109.989 37.0917 109.989 34.6557 107.147 33.3024C104.305 31.9491 90.5641 26.3328 90.5641 26.3328C90.5641 26.3328 88.8767 25.5884 87.4557 26.3328Z" fill="#EEB7D6"/>
<path opacity="0.2" d="M89.0781 31.2051V64.4149C89.0781 64.4149 104.371 57.0537 104.235 37.7011L89.0781 31.2051Z" fill="black"/>
<path d="M155.188 100H15.0626C15.0175 100 14.9743 99.9823 14.9424 99.9505C14.9105 99.9186 14.8926 99.8753 14.8926 99.8302C14.8926 99.7851 14.9105 99.7419 14.9424 99.71C14.9743 99.6781 15.0175 99.6602 15.0626 99.6602H155.188C155.233 99.6602 155.277 99.6781 155.309 99.71C155.34 99.7419 155.358 99.7851 155.358 99.8302C155.358 99.8753 155.34 99.9186 155.309 99.9505C155.277 99.9823 155.233 100 155.188 100Z" fill="#CBCBCB"/>
</g>
<defs>
<clipPath id="clip0_1095_1546">
<rect width="140.466" height="92" fill="white" transform="translate(14.8926 8)"/>
</clipPath>
</defs>
</svg>
