<svg width="169" height="110" viewBox="0 0 169 110" fill="none" xmlns="http://www.w3.org/2000/svg">
<rect width="169" height="110" fill="white"/>
<g clip-path="url(#clip0_1096_1585)">
<path d="M131.644 101.345V91.3359C131.644 91.3359 135.952 98.4318 131.644 101.345Z" fill="#F1F1F1"/>
<path d="M131.91 101.343L123.766 94.5742C123.766 94.5742 132.453 96.4995 131.91 101.343Z" fill="#F1F1F1"/>
<path d="M37.2703 101.345V91.3359C37.2703 91.3359 32.9619 98.4318 37.2703 101.345Z" fill="#F1F1F1"/>
<path d="M37.004 101.343L45.1481 94.5742C45.1481 94.5742 36.4606 96.4995 37.004 101.343Z" fill="#F1F1F1"/>
<path d="M111.284 27.1125H110.693V12.473C110.693 11.3603 110.451 10.2585 109.981 9.2305C109.511 8.20252 108.821 7.26846 107.952 6.48168C107.083 5.69489 106.051 5.07078 104.916 4.64497C103.78 4.21916 102.563 4 101.334 4H67.0749C65.8459 4 64.6288 4.21915 63.4933 4.64496C62.3579 5.07076 61.3261 5.69487 60.457 6.48166C59.588 7.26844 58.8986 8.20249 58.4282 9.23048C57.9579 10.2585 57.7158 11.3603 57.7158 12.4729V92.7865C57.7158 95.0337 58.7019 97.1888 60.457 98.7778C62.2122 100.367 64.5927 101.259 67.0749 101.259H101.334C103.817 101.259 106.197 100.367 107.952 98.7778C109.707 97.1889 110.693 95.0337 110.693 92.7866V37.5331H111.284V27.1125Z" fill="#3F3D56"/>
<path d="M101.713 6.20508H97.2406C97.4462 6.66155 97.5247 7.15679 97.4692 7.64719C97.4136 8.13759 97.2257 8.60809 96.9219 9.01725C96.6182 9.42641 96.208 9.76167 95.7274 9.99349C95.2469 10.2253 94.7107 10.3466 94.1662 10.3466H74.5393C73.9948 10.3466 73.4586 10.2253 72.9781 9.99349C72.4975 9.76167 72.0873 9.42642 71.7836 9.01726C71.4798 8.60809 71.2919 8.13759 71.2363 7.64719C71.1808 7.15679 71.2593 6.66154 71.4649 6.20508H67.2881C65.4344 6.20508 63.6567 6.87172 62.3459 8.05836C61.0352 9.24499 60.2988 10.8544 60.2988 12.5326V92.7283C60.2988 93.5593 60.4796 94.3821 60.8308 95.1498C61.1821 95.9174 61.6969 96.615 62.3459 97.2025C62.9949 97.7901 63.7654 98.2562 64.6134 98.5742C65.4614 98.8922 66.3702 99.0558 67.2881 99.0558H101.713C102.63 99.0558 103.539 98.8922 104.387 98.5742C105.235 98.2562 106.006 97.7901 106.655 97.2026C107.304 96.615 107.819 95.9174 108.17 95.1498C108.521 94.3821 108.702 93.5593 108.702 92.7283V12.5326C108.702 11.7016 108.521 10.8788 108.17 10.1112C107.819 9.34346 107.304 8.64592 106.655 8.05836C106.006 7.4708 105.235 7.00472 104.387 6.68673C103.539 6.36875 102.63 6.20508 101.713 6.20508Z" fill="white"/>
<path d="M100.85 97.6787H68.15C64.3927 97.6787 61.3359 95.2086 61.3359 92.1726V88.1864C61.3359 85.7666 63.7703 83.7979 66.7626 83.7979H102.237C105.23 83.7979 107.664 85.7666 107.664 88.1864V92.1726C107.664 95.2086 104.607 97.6787 100.85 97.6787Z" fill="#E5E5E5"/>
<path d="M71.5867 30.6814H64.2927C64.162 30.6813 64.0367 30.6342 63.9443 30.5506C63.8519 30.4669 63.8 30.3535 63.7998 30.2352V23.6317C63.8 23.5134 63.8519 23.4 63.9443 23.3164C64.0367 23.2327 64.162 23.1857 64.2927 23.1855H71.5867C71.7174 23.1857 71.8427 23.2327 71.9351 23.3164C72.0275 23.4 72.0794 23.5134 72.0796 23.6317V30.2352C72.0794 30.3535 72.0275 30.4669 71.9351 30.5506C71.8427 30.6342 71.7174 30.6813 71.5867 30.6814Z" fill="#EEB7D6"/>
<path d="M82.6278 30.6814H75.3337C75.203 30.6813 75.0777 30.6342 74.9853 30.5506C74.8929 30.4669 74.841 30.3535 74.8408 30.2352V23.6317C74.841 23.5134 74.8929 23.4 74.9853 23.3164C75.0777 23.2327 75.203 23.1857 75.3337 23.1855H82.6278C82.7584 23.1857 82.8837 23.2327 82.9761 23.3164C83.0685 23.4 83.1204 23.5134 83.1206 23.6317V30.2352C83.1204 30.3535 83.0685 30.4669 82.9761 30.5506C82.8837 30.6342 82.7584 30.6813 82.6278 30.6814Z" fill="#E5E5E5"/>
<path d="M93.6668 30.6814H86.3727C86.2421 30.6813 86.1168 30.6342 86.0244 30.5506C85.932 30.4669 85.88 30.3535 85.8799 30.2352V23.6317C85.88 23.5134 85.932 23.4 86.0244 23.3164C86.1168 23.2327 86.2421 23.1857 86.3727 23.1855H93.6668C93.7975 23.1857 93.9227 23.2327 94.0151 23.3164C94.1075 23.4 94.1595 23.5134 94.1597 23.6317V30.2352C94.1595 30.3535 94.1075 30.4669 94.0151 30.5506C93.9227 30.6342 93.7975 30.6813 93.6668 30.6814Z" fill="#E5E5E5"/>
<path d="M104.706 30.6814H97.4118C97.2811 30.6813 97.1559 30.6342 97.0635 30.5506C96.9711 30.4669 96.9191 30.3535 96.9189 30.2352V23.6317C96.9191 23.5134 96.9711 23.4 97.0635 23.3164C97.1559 23.2327 97.2811 23.1857 97.4118 23.1855H104.706C104.837 23.1857 104.962 23.2327 105.054 23.3164C105.147 23.4 105.199 23.5134 105.199 23.6317V30.2352C105.199 30.3535 105.147 30.4669 105.054 30.5506C104.962 30.6342 104.837 30.6813 104.706 30.6814Z" fill="#E5E5E5"/>
<path d="M71.5613 42.907H64.2673C64.1366 42.9069 64.0113 42.8598 63.9189 42.7762C63.8265 42.6925 63.7746 42.5791 63.7744 42.4608V35.8573C63.7746 35.739 63.8265 35.6256 63.9189 35.542C64.0113 35.4583 64.1366 35.4113 64.2673 35.4111H71.5613C71.692 35.4113 71.8173 35.4583 71.9097 35.542C72.0021 35.6256 72.054 35.739 72.0542 35.8573V42.4608C72.054 42.5791 72.0021 42.6925 71.9097 42.7762C71.8173 42.8598 71.692 42.9069 71.5613 42.907Z" fill="#E5E5E5"/>
<path d="M82.6014 42.907H75.3073C75.1766 42.9069 75.0514 42.8598 74.959 42.7762C74.8666 42.6925 74.8146 42.5791 74.8145 42.4608V35.8573C74.8146 35.739 74.8666 35.6256 74.959 35.542C75.0514 35.4583 75.1766 35.4113 75.3073 35.4111H82.6014C82.7321 35.4113 82.8573 35.4583 82.9497 35.542C83.0421 35.6256 83.0941 35.739 83.0942 35.8573V42.4608C83.0941 42.5791 83.0421 42.6925 82.9497 42.7762C82.8573 42.8598 82.7321 42.9069 82.6014 42.907Z" fill="#E5E5E5"/>
<path d="M93.6414 42.907H86.3473C86.2167 42.9069 86.0914 42.8598 85.999 42.7762C85.9066 42.6925 85.8546 42.5791 85.8545 42.4608V35.8573C85.8546 35.739 85.9066 35.6256 85.999 35.542C86.0914 35.4583 86.2167 35.4113 86.3473 35.4111H93.6414C93.7721 35.4113 93.8974 35.4583 93.9898 35.542C94.0821 35.6256 94.1341 35.739 94.1343 35.8573V42.4608C94.1341 42.5791 94.0821 42.6925 93.9898 42.7762C93.8974 42.8598 93.7721 42.9069 93.6414 42.907Z" fill="#EEB7D6"/>
<path d="M104.68 42.907H97.3864C97.2557 42.9069 97.1305 42.8598 97.0381 42.7762C96.9457 42.6925 96.8937 42.5791 96.8936 42.4608V35.8573C96.8937 35.739 96.9457 35.6256 97.0381 35.542C97.1305 35.4583 97.2557 35.4113 97.3864 35.4111H104.68C104.811 35.4113 104.936 35.4583 105.029 35.542C105.121 35.6256 105.173 35.739 105.173 35.8573V42.4608C105.173 42.5791 105.121 42.6925 105.029 42.7762C104.936 42.8598 104.811 42.9069 104.68 42.907Z" fill="#EEB7D6"/>
<path d="M71.535 55.1326H64.2409C64.1102 55.1324 63.985 55.0854 63.8926 55.0017C63.8002 54.9181 63.7482 54.8047 63.748 54.6864V48.0829C63.7482 47.9646 63.8002 47.8512 63.8926 47.7676C63.985 47.6839 64.1102 47.6369 64.2409 47.6367H71.535C71.6657 47.6369 71.7909 47.6839 71.8833 47.7676C71.9757 47.8512 72.0277 47.9646 72.0278 48.0829V54.6864C72.0277 54.8047 71.9757 54.9181 71.8833 55.0017C71.7909 55.0854 71.6657 55.1324 71.535 55.1326Z" fill="#E5E5E5"/>
<path d="M82.575 55.1326H75.2809C75.1503 55.1324 75.025 55.0854 74.9326 55.0017C74.8402 54.9181 74.7882 54.8047 74.7881 54.6864V48.0829C74.7882 47.9646 74.8402 47.8512 74.9326 47.7676C75.025 47.6839 75.1503 47.6369 75.2809 47.6367H82.575C82.7057 47.6369 82.831 47.6839 82.9233 47.7676C83.0157 47.8512 83.0677 47.9646 83.0679 48.0829V54.6864C83.0677 54.8047 83.0157 54.9181 82.9233 55.0017C82.831 55.0854 82.7057 55.1324 82.575 55.1326Z" fill="#E5E5E5"/>
<path d="M93.6151 55.1326H86.321C86.1903 55.1324 86.065 55.0854 85.9726 55.0017C85.8802 54.9181 85.8283 54.8047 85.8281 54.6864V48.0829C85.8283 47.9646 85.8802 47.8512 85.9726 47.7676C86.065 47.6839 86.1903 47.6369 86.321 47.6367H93.6151C93.7457 47.6369 93.871 47.6839 93.9634 47.7676C94.0558 47.8512 94.1078 47.9646 94.1079 48.0829V54.6864C94.1078 54.8047 94.0558 54.9181 93.9634 55.0017C93.871 55.0854 93.7457 55.1324 93.6151 55.1326Z" fill="#E5E5E5"/>
<path d="M104.654 55.1326H97.36C97.2294 55.1324 97.1041 55.0854 97.0117 55.0017C96.9193 54.9181 96.8673 54.8047 96.8672 54.6864V48.0829C96.8673 47.9646 96.9193 47.8512 97.0117 47.7676C97.1041 47.6839 97.2294 47.6369 97.36 47.6367H104.654C104.785 47.6369 104.91 47.6839 105.002 47.7676C105.095 47.8512 105.147 47.9646 105.147 48.0829V54.6864C105.147 54.8047 105.095 54.9181 105.002 55.0017C104.91 55.0854 104.785 55.1324 104.654 55.1326Z" fill="#E5E5E5"/>
<path d="M71.5096 67.3582H64.2155C64.0848 67.358 63.9596 67.311 63.8672 67.2273C63.7748 67.1437 63.7228 67.0303 63.7227 66.912V60.3085C63.7228 60.1902 63.7748 60.0768 63.8672 59.9931C63.9596 59.9095 64.0848 59.8624 64.2155 59.8623H71.5096C71.6403 59.8624 71.7655 59.9095 71.8579 59.9931C71.9503 60.0768 72.0023 60.1902 72.0024 60.3085V66.912C72.0023 67.0303 71.9503 67.1437 71.8579 67.2273C71.7655 67.311 71.6403 67.358 71.5096 67.3582Z" fill="#E5E5E5"/>
<path d="M82.5487 67.3582H75.2546C75.1239 67.358 74.9986 67.311 74.9062 67.2273C74.8138 67.1437 74.7619 67.0303 74.7617 66.912V60.3085C74.7619 60.1902 74.8138 60.0768 74.9062 59.9931C74.9986 59.9095 75.1239 59.8624 75.2546 59.8623H82.5487C82.6793 59.8624 82.8046 59.9095 82.897 59.9931C82.9894 60.0768 83.0413 60.1902 83.0415 60.3085V66.912C83.0413 67.0303 82.9894 67.1437 82.897 67.2273C82.8046 67.311 82.6793 67.358 82.5487 67.3582Z" fill="#E5E5E5"/>
<path d="M93.5897 67.3582H86.2956C86.1649 67.358 86.0397 67.311 85.9473 67.2273C85.8549 67.1437 85.8029 67.0303 85.8027 66.912V60.3085C85.8029 60.1902 85.8549 60.0768 85.9473 59.9931C86.0397 59.9095 86.1649 59.8624 86.2956 59.8623H93.5897C93.7203 59.8624 93.8456 59.9095 93.938 59.9931C94.0304 60.0768 94.0824 60.1902 94.0825 60.3085V66.912C94.0824 67.0303 94.0304 67.1437 93.938 67.2273C93.8456 67.311 93.7203 67.358 93.5897 67.3582Z" fill="#E5E5E5"/>
<path d="M104.629 67.3582H97.3346C97.204 67.358 97.0787 67.311 96.9863 67.2273C96.8939 67.1437 96.842 67.0303 96.8418 66.912V60.3085C96.842 60.1902 96.8939 60.0768 96.9863 59.9931C97.0787 59.9095 97.204 59.8624 97.3346 59.8623H104.629C104.759 59.8624 104.885 59.9095 104.977 59.9931C105.069 60.0768 105.121 60.1902 105.122 60.3085V66.912C105.121 67.0303 105.069 67.1437 104.977 67.2273C104.885 67.311 104.759 67.358 104.629 67.3582Z" fill="#E5E5E5"/>
<path d="M71.5867 94.6638H64.2927C64.162 94.6637 64.0367 94.6166 63.9443 94.533C63.8519 94.4493 63.8 94.3359 63.7998 94.2176V87.6142C63.8 87.4959 63.8519 87.3825 63.9443 87.2988C64.0367 87.2152 64.162 87.1681 64.2927 87.168H71.5867C71.7174 87.1681 71.8427 87.2152 71.9351 87.2988C72.0275 87.3825 72.0794 87.4959 72.0796 87.6142V94.2176C72.0794 94.3359 72.0275 94.4493 71.9351 94.533C71.8427 94.6166 71.7174 94.6637 71.5867 94.6638Z" fill="white"/>
<path d="M82.6278 94.6638H75.3337C75.203 94.6637 75.0777 94.6166 74.9853 94.533C74.8929 94.4493 74.841 94.3359 74.8408 94.2176V87.6142C74.841 87.4959 74.8929 87.3824 74.9853 87.2988C75.0777 87.2152 75.203 87.1681 75.3337 87.168H82.6278C82.7584 87.1681 82.8837 87.2152 82.9761 87.2988C83.0685 87.3824 83.1204 87.4959 83.1206 87.6142V94.2176C83.1204 94.3359 83.0685 94.4493 82.9761 94.533C82.8837 94.6166 82.7584 94.6637 82.6278 94.6638Z" fill="white"/>
<path d="M93.6668 94.6638H86.3727C86.2421 94.6637 86.1168 94.6166 86.0244 94.533C85.932 94.4493 85.88 94.3359 85.8799 94.2176V87.6142C85.88 87.4959 85.932 87.3824 86.0244 87.2988C86.1168 87.2152 86.2421 87.1681 86.3727 87.168H93.6668C93.7975 87.1681 93.9227 87.2152 94.0151 87.2988C94.1075 87.3824 94.1595 87.4959 94.1597 87.6142V94.2176C94.1595 94.3359 94.1075 94.4493 94.0151 94.533C93.9227 94.6166 93.7975 94.6637 93.6668 94.6638Z" fill="white"/>
<path d="M104.706 94.6638H97.4118C97.2811 94.6637 97.1559 94.6166 97.0635 94.533C96.9711 94.4493 96.9191 94.3359 96.9189 94.2176V87.6142C96.9191 87.4959 96.9711 87.3825 97.0635 87.2988C97.1559 87.2152 97.2811 87.1681 97.4118 87.168H104.706C104.837 87.1681 104.962 87.2152 105.054 87.2988C105.147 87.3825 105.199 87.4959 105.199 87.6142V94.2176C105.199 94.3359 105.147 94.4493 105.054 94.533C104.962 94.6166 104.837 94.6637 104.706 94.6638Z" fill="white"/>
<path d="M80.9251 80.7437C81.4695 80.7437 81.9108 80.3442 81.9108 79.8513C81.9108 79.3585 81.4695 78.959 80.9251 78.959C80.3808 78.959 79.9395 79.3585 79.9395 79.8513C79.9395 80.3442 80.3808 80.7437 80.9251 80.7437Z" fill="#E5E5E5"/>
<path d="M84.474 80.7437C85.0183 80.7437 85.4597 80.3442 85.4597 79.8513C85.4597 79.3585 85.0183 78.959 84.474 78.959C83.9296 78.959 83.4883 79.3585 83.4883 79.8513C83.4883 80.3442 83.9296 80.7437 84.474 80.7437Z" fill="#E5E5E5"/>
<path d="M88.0218 80.7437C88.5662 80.7437 89.0075 80.3442 89.0075 79.8513C89.0075 79.3585 88.5662 78.959 88.0218 78.959C87.4774 78.959 87.0361 79.3585 87.0361 79.8513C87.0361 80.3442 87.4774 80.7437 88.0218 80.7437Z" fill="#E5E5E5"/>
<path d="M147.847 101.405H21.1528C21.1123 101.405 21.0734 101.39 21.0448 101.364C21.0161 101.338 21 101.303 21 101.266C21 101.23 21.0161 101.194 21.0448 101.168C21.0734 101.143 21.1123 101.128 21.1528 101.128H147.847C147.888 101.128 147.927 101.143 147.955 101.168C147.984 101.194 148 101.23 148 101.266C148 101.303 147.984 101.338 147.955 101.364C147.927 101.39 147.888 101.405 147.847 101.405Z" fill="#CBCBCB"/>
<path d="M70.8771 74.162C71.0833 73.9754 71.2418 73.7502 71.3414 73.5021C71.441 73.2541 71.4794 72.9892 71.4537 72.7263C71.4281 72.4634 71.3391 72.2088 71.193 71.9803C71.0469 71.7519 70.8473 71.5553 70.6081 71.4043L72.5331 65.2295L69.0235 66.24L67.7336 71.9487C67.48 72.3292 67.3894 72.7807 67.479 73.2177C67.5685 73.6546 67.832 74.0466 68.2195 74.3194C68.6069 74.5922 69.0915 74.7269 69.5813 74.6979C70.0711 74.6689 70.5322 74.4782 70.8771 74.162Z" fill="#FFB7B7"/>
<path d="M71.8759 70.3767C71.8132 70.3876 71.7494 70.3925 71.6856 70.3913L68.3189 70.3302C68.1922 70.3279 68.0675 70.3012 67.953 70.2519C67.8386 70.2026 67.7371 70.1317 67.6553 70.0441C67.5735 69.9565 67.5132 69.8541 67.4785 69.7438C67.4438 69.6335 67.4354 69.5177 67.4539 69.4042L70.8693 48.5134C70.9712 47.9091 71.3085 47.3578 71.8202 46.959C72.3319 46.5602 72.9843 46.3403 73.6595 46.3389C74.0858 46.3398 74.5064 46.4285 74.8893 46.5981C75.2722 46.7678 75.6076 47.014 75.87 47.3181C76.1325 47.6223 76.3152 47.9765 76.4043 48.3539C76.4934 48.7314 76.4866 49.1222 76.3844 49.4969L73.9636 58.3735L72.5907 69.6719C72.5708 69.8433 72.4905 70.0043 72.3618 70.1312C72.2331 70.2581 72.0628 70.3442 71.8759 70.3767Z" fill="#3F3D56"/>
<path d="M73.2835 103.356H75.1572L76.0486 96.8135L73.2832 96.8136L73.2835 103.356Z" fill="#FFB7B7"/>
<path d="M72.8057 102.802L76.4955 102.802H76.4957C77.1193 102.802 77.7174 103.026 78.1584 103.425C78.5994 103.825 78.8471 104.366 78.8472 104.931V105L72.8058 105L72.8057 102.802Z" fill="#2F2E41"/>
<path d="M81.2715 102.805L83.1334 102.994L84.8247 96.5817L82.0766 96.3027L81.2715 102.805Z" fill="#FFB7B7"/>
<path d="M80.8662 102.206L84.5331 102.578C85.1529 102.641 85.7197 102.924 86.1088 103.366C86.4979 103.807 86.6775 104.37 86.608 104.931L86.5995 105L80.5957 104.39L80.8662 102.206Z" fill="#2F2E41"/>
<path d="M71.5242 66.9465C71.5242 66.9465 68.9555 72.0946 71.2239 75.4385L72.5753 101.473H75.6782L78.6884 80.4426L84.0374 86.6687L80.7786 101.2L84.5735 101.393L89.8449 86.6687C89.8449 86.6687 85.7952 70.4326 84.4578 70.0416L83.5789 66.3301L71.5242 66.9465Z" fill="#2F2E41"/>
<path d="M70.3808 71.4665C70.3808 71.4665 68.0667 73.8709 74.1798 74.701C80.2929 75.5312 86.7117 74.286 86.8645 72.6257C87.0174 70.9654 70.3808 71.4665 70.3808 71.4665Z" fill="#CBCBCB"/>
<path d="M101.026 41.6407C101.017 41.8754 100.95 42.1054 100.832 42.3144C100.714 42.5234 100.546 42.7065 100.342 42.8506C100.137 42.9947 99.8995 43.0964 99.6465 43.1485C99.3936 43.2006 99.1311 43.2019 98.8775 43.1522L96.5668 46.1691L94.1992 45.3449L97.5285 41.1261C97.6489 40.746 97.9191 40.4191 98.288 40.2073C98.6568 39.9955 99.0987 39.9135 99.5298 39.977C99.9609 40.0404 100.351 40.2448 100.627 40.5514C100.903 40.8581 101.045 41.2456 101.026 41.6407Z" fill="#FFB7B7"/>
<path d="M81.4833 45.5226L78.2162 44.1846L74.0304 44.4555C74.0304 44.4555 68.9839 49.797 70.9707 54.9162L69.748 72.7644C77.5423 74.7014 81.0853 71.0685 86.7119 72.6261L84.974 52.7898L81.4833 45.5226Z" fill="#3F3D56"/>
<path d="M79.3008 46.8214L81.4843 45.5217C81.4843 45.5217 84.5174 45.1067 85.7298 46.1716C85.7298 46.1716 89.8449 46.4834 90.8388 47.4134L91.9331 47.6367L95.5684 43.375L97.793 44.4693L94.5836 52.3557L84.975 52.7889L79.3008 46.8214Z" fill="#3F3D56"/>
<path d="M80.0536 42.6825C82.5528 41.4457 83.4712 38.6089 82.1051 36.3463C80.7389 34.0837 77.6054 33.2522 75.1062 34.489C72.607 35.7259 71.6886 38.5627 73.0547 40.8252C74.4209 43.0878 77.5544 43.9193 80.0536 42.6825Z" fill="#FFB7B7"/>
<path d="M73.1195 34.9363C74.04 33.4374 75.1903 32.4669 77.0843 32.5019C78.9783 32.5369 80.6166 32.4691 81.4688 34.0008C81.694 33.6191 81.8068 33.1912 81.7963 32.7585C82.0536 32.9097 82.2564 33.1258 82.3797 33.3802C82.5029 33.6345 82.5413 33.916 82.49 34.1898C82.6558 34.1019 82.7945 33.9777 82.8935 33.8287C82.9925 33.6797 83.0486 33.5105 83.0566 33.3368C83.6887 33.5272 83.8531 34.3337 83.5333 34.8627C83.2134 35.3918 82.5862 35.6977 81.9843 35.9563C81.3825 36.2149 81.6604 37.5827 81.2674 38.0697C80.9931 38.4096 80.8676 38.8261 80.6828 39.2123C80.6751 39.2276 80.6619 39.24 80.6454 39.2477C80.2216 39.4616 79.9542 39.8438 80.029 40.2778C80.0378 40.3103 80.0358 40.3445 80.023 40.376C79.4865 41.2909 78.9074 42.2482 77.9351 42.7942C77.1548 43.2207 76.2202 43.3515 75.3341 43.1582C74.3402 42.943 73.481 42.3465 72.8614 41.6107C72.2418 40.875 71.8432 40.0054 71.5438 39.1209C71.2781 38.3362 71.0849 37.4972 71.2955 36.6989C71.5062 35.9007 72.2197 35.1615 73.1237 35.0998" fill="#2F2E41"/>
</g>
<defs>
<clipPath id="clip0_1096_1585">
<rect width="127" height="101" fill="white" transform="translate(21 4)"/>
</clipPath>
</defs>
</svg>
