<svg width="169" height="110" viewBox="0 0 169 110" fill="none" xmlns="http://www.w3.org/2000/svg">
<rect width="169" height="110" fill="white"/>
<g clip-path="url(#clip0_1096_1589)">
<path d="M159.415 96.5038C154.787 99.8378 148.79 100.005 142.992 99.5956C142.183 99.5385 141.379 99.4715 140.583 99.3992C140.578 99.3979 140.572 99.3984 140.567 99.3971C140.529 99.3935 140.49 99.3899 140.454 99.3877C140.289 99.3723 140.125 99.3569 139.962 99.3415L140 99.4149L140.121 99.6426C140.078 99.5664 140.034 99.4918 139.991 99.4155C139.978 99.3926 139.964 99.3699 139.951 99.347C138.449 96.7336 136.96 94.0241 136.58 91.0399C136.187 87.9424 137.291 84.435 140.017 82.9126C140.375 82.7135 140.753 82.5549 141.146 82.4398C141.309 82.3902 141.474 82.3501 141.641 82.3145C142.664 82.0875 143.728 82.1368 144.725 82.4576C145.722 82.7783 146.616 83.3588 147.314 84.1393C148.012 84.9199 148.49 85.8724 148.698 86.8988C148.907 87.9252 148.838 88.9886 148.498 89.9795C150.81 87.6095 150.379 83.7647 149.581 80.5515C148.783 77.3383 147.815 73.7628 149.44 70.8767C150.343 69.2703 151.932 68.2736 153.714 67.8721C153.769 67.8603 153.823 67.8485 153.878 67.8383C156.002 67.4081 158.21 67.795 160.061 68.9216C163.469 71.0693 165.219 75.1413 165.787 79.1303C166.703 85.5492 164.677 92.7129 159.415 96.5038Z" fill="#F2F2F2"/>
<path d="M157.921 86.2146C157.787 87.6304 157.447 89.0192 156.911 90.3369C156.418 91.503 155.753 92.5887 154.939 93.5582C153.276 95.5591 151.076 97.0635 148.688 98.0658C146.861 98.8139 144.948 99.328 142.992 99.5962C142.183 99.539 141.379 99.472 140.583 99.3997C140.578 99.3985 140.572 99.3989 140.567 99.3977C140.528 99.394 140.49 99.3904 140.453 99.3882C140.289 99.3728 140.125 99.3575 139.962 99.342L140 99.4154L140.121 99.6431C140.078 99.5669 140.034 99.4923 139.991 99.4161C139.978 99.3932 139.964 99.3704 139.951 99.3475C141.417 97.887 142.512 96.0963 143.143 94.1257C143.774 92.155 143.924 90.0617 143.58 88.0212C143.22 85.9951 142.386 84.0828 141.146 82.4403C141.309 82.3908 141.474 82.3506 141.641 82.315C142.112 82.9591 142.526 83.6437 142.876 84.3606C144.134 86.9173 144.536 89.8111 144.021 92.6137C143.542 95.1498 142.35 97.4968 140.584 99.379C140.739 99.3681 140.895 99.3555 141.048 99.3416C143.942 99.0964 146.83 98.4743 149.454 97.2C151.698 96.1372 153.646 94.539 155.126 92.5461C156.716 90.3538 157.416 87.7168 157.537 85.0366C157.664 82.1672 157.292 79.2475 156.637 76.457C155.969 73.5963 154.952 70.8282 153.611 68.2144C153.581 68.1551 153.575 68.0865 153.594 68.0229C153.613 67.9593 153.656 67.9055 153.714 67.8726C153.762 67.8401 153.821 67.828 153.878 67.8388C153.906 67.8462 153.932 67.8598 153.954 67.8785C153.976 67.8973 153.993 67.9208 154.005 67.9472C154.17 68.2701 154.332 68.5932 154.489 68.92C155.789 71.6414 156.747 74.5139 157.34 77.4714C157.915 80.3246 158.222 83.3092 157.921 86.2146Z" fill="white"/>
<path d="M97.4925 97.9765C99.8566 99.6796 102.92 99.7651 105.882 99.5559C106.295 99.5267 106.706 99.4925 107.112 99.4555C107.115 99.4549 107.118 99.4551 107.121 99.4545C107.14 99.4526 107.16 99.4508 107.179 99.4497C107.262 99.4418 107.346 99.434 107.43 99.4261L107.41 99.4635L107.348 99.5799C107.37 99.5409 107.393 99.5028 107.415 99.4639C107.421 99.4522 107.429 99.4406 107.435 99.4289C108.202 98.0939 108.963 96.7098 109.157 95.1854C109.358 93.6032 108.794 91.8115 107.401 91.0338C107.219 90.9321 107.025 90.8511 106.825 90.7923C106.742 90.767 106.657 90.7465 106.572 90.7283C106.049 90.6124 105.506 90.6376 104.996 90.8014C104.487 90.9652 104.031 91.2618 103.674 91.6605C103.317 92.0592 103.073 92.5458 102.967 93.0701C102.861 93.5944 102.896 94.1376 103.069 94.6438C101.888 93.4331 102.109 91.4691 102.516 89.8277C102.924 88.1864 103.418 86.3599 102.588 84.8857C102.353 84.4903 102.037 84.1491 101.661 83.8845C101.284 83.62 100.856 83.4381 100.405 83.3508C100.377 83.3448 100.349 83.3388 100.321 83.3336C99.2361 83.1139 98.1083 83.3115 97.1628 83.887C95.4219 84.984 94.5277 87.0641 94.2375 89.1018C93.7699 92.3807 94.8047 96.04 97.4925 97.9765Z" fill="#F2F2F2"/>
<path d="M98.2554 92.7207C98.3241 93.444 98.4978 94.1533 98.7712 94.8265C99.0231 95.4221 99.3626 95.9768 99.7786 96.472C100.643 97.4841 101.738 98.2738 102.972 98.7746C103.905 99.1567 104.882 99.4193 105.881 99.5563C106.295 99.5271 106.705 99.4929 107.112 99.4559C107.115 99.4553 107.118 99.4555 107.12 99.4549C107.14 99.453 107.159 99.4512 107.178 99.4501C107.262 99.4422 107.346 99.4344 107.429 99.4265L107.41 99.4639L107.348 99.5803C107.37 99.5413 107.392 99.5032 107.414 99.4643C107.421 99.4526 107.428 99.441 107.435 99.4293C106.686 98.6832 106.127 97.7685 105.804 96.7618C105.482 95.7552 105.405 94.6859 105.581 93.6436C105.765 92.6086 106.191 91.6318 106.824 90.7927C106.741 90.7674 106.657 90.7469 106.571 90.7287C106.331 91.0578 106.12 91.4074 105.941 91.7736C105.298 93.0797 105.093 94.5579 105.356 95.9895C105.6 97.285 106.209 98.4839 107.111 99.4454C107.032 99.4398 106.953 99.4334 106.875 99.4262C105.388 99.3279 103.933 98.9571 102.58 98.3323C101.434 97.7894 100.439 96.973 99.683 95.955C98.871 94.8351 98.5132 93.4881 98.4517 92.119C98.4044 90.644 98.559 89.1695 98.9112 87.7363C99.2528 86.2751 99.7719 84.861 100.457 83.5258C100.472 83.4956 100.475 83.4605 100.466 83.428C100.456 83.3955 100.434 83.368 100.404 83.3512C100.38 83.3347 100.35 83.3285 100.321 83.334C100.306 83.3378 100.293 83.3447 100.282 83.3543C100.271 83.3639 100.262 83.3759 100.256 83.3894C100.171 83.5543 100.089 83.7194 100.009 83.8863C99.3443 85.2764 98.8551 86.7438 98.5524 88.2545C98.2302 89.72 98.1301 91.2255 98.2554 92.7207Z" fill="white"/>
<path d="M34.4585 21.2139H9.84631C9.09175 21.2149 8.3684 21.5152 7.83484 22.0487C7.30129 22.5823 7.00107 23.3056 7 24.0602V62.7365C7.00107 63.491 7.30129 64.2144 7.83484 64.7479C8.3684 65.2815 9.09175 65.5817 9.84631 65.5828H34.4585C35.2131 65.5817 35.9364 65.2815 36.47 64.7479C37.0035 64.2144 37.3037 63.491 37.3048 62.7365V24.0602C37.3037 23.3056 37.0035 22.5823 36.47 22.0487C35.9364 21.5152 35.2131 21.2149 34.4585 21.2139ZM36.9699 62.7365C36.9691 63.4023 36.7043 64.0406 36.2335 64.5114C35.7627 64.9822 35.1243 65.2471 34.4585 65.2479H9.84631C9.18048 65.2471 8.54215 64.9822 8.07134 64.5114C7.60053 64.0406 7.33567 63.4023 7.33486 62.7365V24.0602C7.33567 23.3943 7.60053 22.756 8.07134 22.2852C8.54215 21.8144 9.18048 21.5495 9.84631 21.5487H34.4585C35.1243 21.5495 35.7627 21.8144 36.2335 22.2852C36.7043 22.756 36.9691 23.3943 36.9699 24.0602V62.7365Z" fill="#3F3D56"/>
<path d="M87.1987 65.5828H62.5865C61.8319 65.5819 61.1084 65.2818 60.5748 64.7482C60.0412 64.2146 59.7411 63.4911 59.7402 62.7365V24.0602C59.7411 23.3055 60.0412 22.5821 60.5748 22.0485C61.1084 21.5149 61.8319 21.2147 62.5865 21.2139H87.1987C87.9534 21.2147 88.6768 21.5149 89.2104 22.0485C89.744 22.5821 90.0442 23.3055 90.045 24.0602V62.7365C90.0442 63.4911 89.744 64.2146 89.2104 64.7482C88.6768 65.2818 87.9534 65.5819 87.1987 65.5828ZM62.5865 21.5487C61.9207 21.5495 61.2823 21.8143 60.8115 22.2851C60.3407 22.756 60.0758 23.3943 60.0751 24.0602V62.7365C60.0758 63.4023 60.3407 64.0407 60.8115 64.5115C61.2823 64.9823 61.9207 65.2472 62.5865 65.2479H87.1987C87.8646 65.2472 88.5029 64.9823 88.9738 64.5115C89.4446 64.0407 89.7094 63.4023 89.7102 62.7365V24.0602C89.7094 23.3943 89.4446 22.756 88.9738 22.2851C88.5029 21.8143 87.8646 21.5495 87.1987 21.5487H62.5865Z" fill="#3F3D56"/>
<path d="M51.8719 43.6493H41.6586C41.6142 43.6493 41.5717 43.6317 41.5403 43.6003C41.5089 43.5689 41.4912 43.5263 41.4912 43.4819C41.4912 43.4375 41.5089 43.3949 41.5403 43.3635C41.5717 43.3321 41.6142 43.3145 41.6586 43.3145H51.8719C51.9163 43.3145 51.9589 43.3321 51.9903 43.3635C52.0217 43.3949 52.0393 43.4375 52.0393 43.4819C52.0393 43.5263 52.0217 43.5689 51.9903 43.6003C51.9589 43.6317 51.9163 43.6493 51.8719 43.6493Z" fill="#3F3D56"/>
<path d="M49.6949 48.2412C49.6598 48.2412 49.6257 48.2302 49.5972 48.2098C49.5687 48.1894 49.5474 48.1605 49.5362 48.1273C49.5249 48.0941 49.5244 48.0583 49.5347 48.0248C49.5449 47.9913 49.5654 47.9618 49.5933 47.9406L54.9215 43.8814C54.983 43.8345 55.0329 43.7741 55.0672 43.7048C55.1015 43.6355 55.1194 43.5592 55.1194 43.4818C55.1194 43.4045 55.1015 43.3282 55.0672 43.2589C55.0329 43.1896 54.983 43.1292 54.9215 43.0823L49.5933 39.0231C49.558 38.9962 49.5349 38.9564 49.529 38.9124C49.5231 38.8684 49.5349 38.8239 49.5617 38.7886C49.5886 38.7533 49.6284 38.7302 49.6724 38.7242C49.7163 38.7182 49.7609 38.7299 49.7962 38.7568L55.1244 42.816C55.2269 42.8941 55.3101 42.9948 55.3673 43.1103C55.4245 43.2258 55.4542 43.353 55.4542 43.4818C55.4542 43.6107 55.4245 43.7379 55.3673 43.8534C55.3101 43.9689 55.2269 44.0696 55.1244 44.1477L49.7962 48.2069C49.7671 48.2292 49.7315 48.2412 49.6949 48.2412Z" fill="#3F3D56"/>
<path d="M104.444 43.6493H94.2309C94.1865 43.6493 94.1439 43.6317 94.1125 43.6003C94.0811 43.5689 94.0635 43.5263 94.0635 43.4819C94.0635 43.4375 94.0811 43.3949 94.1125 43.3635C94.1439 43.3321 94.1865 43.3145 94.2309 43.3145H104.444C104.489 43.3145 104.531 43.3321 104.563 43.3635C104.594 43.3949 104.612 43.4375 104.612 43.4819C104.612 43.5263 104.594 43.5689 104.563 43.6003C104.531 43.6317 104.489 43.6493 104.444 43.6493Z" fill="#3F3D56"/>
<path d="M102.267 48.2412C102.232 48.2412 102.198 48.2302 102.169 48.2098C102.141 48.1894 102.12 48.1605 102.108 48.1273C102.097 48.0941 102.097 48.0583 102.107 48.0248C102.117 47.9913 102.138 47.9618 102.166 47.9406L107.494 43.8814C107.555 43.8345 107.605 43.7741 107.639 43.7048C107.674 43.6355 107.692 43.5592 107.692 43.4818C107.692 43.4045 107.674 43.3282 107.639 43.2589C107.605 43.1896 107.555 43.1292 107.494 43.0823L102.166 39.0231C102.13 38.9962 102.107 38.9564 102.101 38.9124C102.095 38.8684 102.107 38.8239 102.134 38.7886C102.161 38.7533 102.201 38.7302 102.245 38.7242C102.289 38.7182 102.333 38.7299 102.368 38.7568L107.697 42.816C107.799 42.8941 107.882 42.9948 107.94 43.1103C107.997 43.2258 108.027 43.353 108.027 43.4818C108.027 43.6107 107.997 43.7379 107.94 43.8534C107.882 43.9689 107.799 44.0696 107.697 44.1477L102.368 48.2069C102.339 48.2292 102.304 48.2412 102.267 48.2412Z" fill="#3F3D56"/>
<path d="M77.9062 36.868H72.0462C71.6689 36.8676 71.3071 36.7175 71.0403 36.4507C70.7735 36.1839 70.6235 35.8222 70.623 35.4449V29.7523C70.6235 29.3749 70.7735 29.0132 71.0403 28.7464C71.3071 28.4796 71.6689 28.3295 72.0462 28.3291H77.9062C78.2836 28.3295 78.6453 28.4796 78.9121 28.7464C79.1789 29.0132 79.329 29.3749 79.3294 29.7523V35.4449C79.329 35.8222 79.1789 36.1839 78.9121 36.4507C78.6453 36.7175 78.2836 36.8676 77.9062 36.868Z" fill="#EEB7D6"/>
<path d="M78.9941 36.7855C78.9721 36.7856 78.9503 36.7813 78.93 36.7728C78.9097 36.7644 78.8912 36.7521 78.8757 36.7365L70.8391 28.6999C70.8235 28.6843 70.8112 28.6659 70.8028 28.6455C70.7944 28.6252 70.79 28.6035 70.79 28.5815C70.79 28.5595 70.7944 28.5377 70.8028 28.5174C70.8112 28.4971 70.8235 28.4786 70.8391 28.4631C70.8546 28.4475 70.8731 28.4352 70.8934 28.4268C70.9137 28.4184 70.9355 28.4141 70.9575 28.4141C70.9794 28.4141 71.0012 28.4184 71.0215 28.4268C71.0418 28.4352 71.0603 28.4476 71.0758 28.4631L79.1125 36.4997C79.1359 36.5231 79.1518 36.553 79.1583 36.5854C79.1647 36.6179 79.1614 36.6516 79.1487 36.6822C79.1361 36.7128 79.1146 36.7389 79.0871 36.7573C79.0596 36.7757 79.0272 36.7855 78.9941 36.7855Z" fill="white"/>
<path d="M70.9574 36.7855C70.9243 36.7855 70.892 36.7757 70.8644 36.7573C70.8369 36.7389 70.8154 36.7128 70.8028 36.6822C70.7901 36.6516 70.7868 36.6179 70.7933 36.5854C70.7997 36.553 70.8156 36.5231 70.8391 36.4997L78.8757 28.4631C78.8912 28.4476 78.9097 28.4352 78.93 28.4268C78.9503 28.4184 78.9721 28.4141 78.9941 28.4141C79.0161 28.4141 79.0378 28.4184 79.0581 28.4268C79.0784 28.4352 79.0969 28.4475 79.1124 28.4631C79.128 28.4786 79.1403 28.4971 79.1487 28.5174C79.1572 28.5377 79.1615 28.5595 79.1615 28.5815C79.1615 28.6035 79.1572 28.6252 79.1487 28.6455C79.1403 28.6659 79.128 28.6843 79.1124 28.6999L71.0758 36.7365C71.0603 36.7521 71.0418 36.7644 71.0215 36.7728C71.0012 36.7812 70.9794 36.7856 70.9574 36.7855Z" fill="white"/>
<path d="M80.3342 45.6584H69.4513C68.8962 45.6584 68.3639 45.4379 67.9714 45.0454C67.5789 44.6529 67.3584 44.1206 67.3584 43.5655C67.3584 43.0105 67.5789 42.4781 67.9714 42.0856C68.3639 41.6932 68.8962 41.4727 69.4513 41.4727H80.3342C80.8893 41.4727 81.4216 41.6932 81.8141 42.0856C82.2066 42.4781 82.4271 43.0105 82.4271 43.5655C82.4271 44.1206 82.2066 44.6529 81.8141 45.0454C81.4216 45.4379 80.8893 45.6584 80.3342 45.6584ZM69.4513 41.8075C68.985 41.8075 68.5379 41.9927 68.2082 42.3224C67.8785 42.6521 67.6933 43.0993 67.6933 43.5655C67.6933 44.0318 67.8785 44.4789 68.2082 44.8086C68.5379 45.1383 68.985 45.3235 69.4513 45.3235H80.3342C80.8005 45.3235 81.2476 45.1383 81.5773 44.8086C81.907 44.4789 82.0922 44.0318 82.0922 43.5655C82.0922 43.0993 81.907 42.6521 81.5773 42.3224C81.2476 41.9927 80.8005 41.8075 80.3342 41.8075H69.4513Z" fill="#3F3D56"/>
<path d="M80.3342 52.0207H69.4513C68.8962 52.0207 68.3639 51.8002 67.9714 51.4077C67.5789 51.0152 67.3584 50.4829 67.3584 49.9278C67.3584 49.3728 67.5789 48.8404 67.9714 48.4479C68.3639 48.0555 68.8962 47.835 69.4513 47.835H80.3342C80.8893 47.835 81.4216 48.0555 81.8141 48.4479C82.2066 48.8404 82.4271 49.3728 82.4271 49.9278C82.4271 50.4829 82.2066 51.0152 81.8141 51.4077C81.4216 51.8002 80.8893 52.0207 80.3342 52.0207ZM69.4513 48.1698C68.985 48.1698 68.5379 48.355 68.2082 48.6847C67.8785 49.0144 67.6933 49.4616 67.6933 49.9278C67.6933 50.3941 67.8785 50.8412 68.2082 51.1709C68.5379 51.5006 68.985 51.6858 69.4513 51.6858H80.3342C80.8005 51.6858 81.2476 51.5006 81.5773 51.1709C81.907 50.8412 82.0922 50.3941 82.0922 49.9278C82.0922 49.4616 81.907 49.0144 81.5773 48.6847C81.2476 48.355 80.8005 48.1698 80.3342 48.1698H69.4513Z" fill="#3F3D56"/>
<path d="M80.3342 58.383H69.4513C68.8962 58.383 68.3639 58.1625 67.9714 57.77C67.5789 57.3775 67.3584 56.8452 67.3584 56.2901C67.3584 55.7351 67.5789 55.2027 67.9714 54.8103C68.3639 54.4178 68.8962 54.1973 69.4513 54.1973H80.3342C80.8893 54.1973 81.4216 54.4178 81.8141 54.8103C82.2066 55.2027 82.4271 55.7351 82.4271 56.2901C82.4271 56.8452 82.2066 57.3775 81.8141 57.77C81.4216 58.1625 80.8893 58.383 80.3342 58.383ZM69.4513 54.5321C68.985 54.5321 68.5379 54.7173 68.2082 55.047C67.8785 55.3767 67.6933 55.8239 67.6933 56.2901C67.6933 56.7564 67.8785 57.2036 68.2082 57.5332C68.5379 57.8629 68.985 58.0482 69.4513 58.0482H80.3342C80.8005 58.0482 81.2476 57.8629 81.5773 57.5332C81.907 57.2036 82.0922 56.7564 82.0922 56.2901C82.0922 55.8239 81.907 55.3767 81.5773 55.047C81.2476 54.7173 80.8005 54.5321 80.3342 54.5321H69.4513Z" fill="#3F3D56"/>
<path d="M137.735 19.0388L113.455 23.0685C112.711 23.1931 112.046 23.6077 111.607 24.2214C111.168 24.8351 110.991 25.5978 111.113 26.3424L117.445 64.4968C117.57 65.241 117.985 65.9054 118.598 66.3444C119.212 66.7834 119.975 66.9611 120.719 66.8386L144.999 62.809C145.744 62.6844 146.408 62.2698 146.847 61.6561C147.286 61.0424 147.464 60.2796 147.341 59.5351L141.009 21.3807C140.884 20.6365 140.47 19.972 139.856 19.533C139.242 19.094 138.48 18.9163 137.735 19.0388ZM147.011 59.5899C147.119 60.2469 146.962 60.9199 146.575 61.4615C146.188 62.003 145.601 62.3688 144.944 62.4786L120.664 66.5083C120.007 66.6165 119.334 66.4597 118.793 66.0724C118.251 65.685 117.886 65.0986 117.776 64.4419L111.443 26.2875C111.335 25.6306 111.492 24.9575 111.879 24.416C112.267 23.8744 112.853 23.5086 113.51 23.3988L137.79 19.3691C138.447 19.2609 139.12 19.4177 139.661 19.8051C140.203 20.1924 140.569 20.7788 140.679 21.4355L147.011 59.5899Z" fill="#3F3D56"/>
<path d="M133.457 34.6837L122.721 36.4655C122.173 36.5564 121.612 36.426 121.16 36.1031C120.709 35.7801 120.404 35.2911 120.313 34.7435C120.223 34.1959 120.353 33.6347 120.676 33.1832C120.999 32.7318 121.488 32.4271 122.035 32.3362L132.771 30.5544C133.319 30.4639 133.88 30.5945 134.331 30.9174C134.782 31.2403 135.087 31.7292 135.178 32.2766C135.268 32.8239 135.138 33.385 134.815 33.8364C134.493 34.2877 134.004 34.5925 133.457 34.6837ZM122.09 32.6666C121.63 32.743 121.22 32.999 120.948 33.3782C120.677 33.7574 120.568 34.2287 120.644 34.6886C120.72 35.1485 120.976 35.5593 121.355 35.8305C121.735 36.1018 122.206 36.2114 122.666 36.1352L133.402 34.3533C133.862 34.2769 134.273 34.0209 134.544 33.6417C134.815 33.2625 134.924 32.7912 134.848 32.3313C134.772 31.8714 134.516 31.4606 134.137 31.1894C133.758 30.9181 133.286 30.8085 132.826 30.8848L122.09 32.6666Z" fill="#CCCCCC"/>
<path d="M134.719 42.2815L123.983 44.0634C123.711 44.1085 123.434 44.0998 123.166 44.0378C122.898 43.9757 122.645 43.8614 122.422 43.7015C122.198 43.5416 122.008 43.3392 121.863 43.1059C121.717 42.8725 121.619 42.6128 121.574 42.3416C121.529 42.0704 121.538 41.7929 121.6 41.5251C121.662 41.2573 121.777 41.0044 121.937 40.7808C122.097 40.5572 122.299 40.3674 122.533 40.2221C122.766 40.0768 123.026 39.979 123.297 39.9341L134.033 38.1523C134.581 38.0614 135.142 38.1918 135.594 38.5147C136.045 38.8376 136.35 39.3267 136.441 39.8742C136.532 40.4218 136.401 40.9831 136.078 41.4345C135.755 41.886 135.266 42.1907 134.719 42.2815ZM123.352 40.2644C122.892 40.341 122.482 40.597 122.211 40.9761C121.94 41.3553 121.83 41.8266 121.907 42.2864C121.983 42.7463 122.239 43.157 122.618 43.4282C122.997 43.6995 123.468 43.8091 123.928 43.733L134.664 41.9512C135.124 41.8747 135.534 41.6187 135.805 41.2395C136.076 40.8603 136.186 40.389 136.11 39.9292C136.033 39.4694 135.777 39.0587 135.398 38.7874C135.019 38.5161 134.548 38.4065 134.088 38.4826L123.352 40.2644Z" fill="#CCCCCC"/>
<path d="M135.98 49.88L125.243 51.6618C124.972 51.707 124.695 51.6983 124.427 51.6362C124.159 51.5741 123.906 51.4598 123.682 51.2999C123.459 51.14 123.269 50.9376 123.123 50.7043C122.978 50.471 122.88 50.2113 122.835 49.94C122.79 49.6688 122.799 49.3913 122.861 49.1235C122.923 48.8557 123.038 48.6028 123.198 48.3792C123.358 48.1557 123.56 47.9658 123.794 47.8205C124.027 47.6752 124.287 47.5774 124.558 47.5325L135.294 45.7507C135.842 45.6602 136.403 45.7908 136.854 46.1137C137.305 46.4366 137.609 46.9255 137.7 47.4729C137.791 48.0202 137.661 48.5813 137.338 49.0326C137.016 49.484 136.527 49.7888 135.98 49.88ZM124.613 47.8629C124.385 47.9006 124.167 47.9829 123.971 48.1049C123.775 48.227 123.605 48.3865 123.471 48.5743C123.336 48.762 123.24 48.9745 123.188 49.1994C123.136 49.4243 123.128 49.6573 123.166 49.8851C123.204 50.1128 123.286 50.3309 123.408 50.5269C123.53 50.7229 123.69 50.8929 123.878 51.0272C124.066 51.1615 124.278 51.2575 124.503 51.3097C124.728 51.3619 124.961 51.3693 125.189 51.3314L135.925 49.5496C136.153 49.5119 136.371 49.4297 136.567 49.3076C136.763 49.1856 136.933 49.0261 137.067 48.8383C137.202 48.6505 137.298 48.4381 137.35 48.2132C137.402 47.9882 137.41 47.7552 137.372 47.5274C137.334 47.2995 137.252 47.0814 137.13 46.8854C137.008 46.6894 136.848 46.5194 136.66 46.3851C136.472 46.2508 136.26 46.1548 136.035 46.1026C135.81 46.0505 135.577 46.0431 135.349 46.081L124.613 47.8629Z" fill="#CCCCCC"/>
<path d="M137.241 57.4776L126.505 59.2594C126.234 59.3044 125.956 59.2956 125.689 59.2334C125.421 59.1712 125.168 59.0569 124.945 58.897C124.721 58.7371 124.531 58.5348 124.386 58.3015C124.241 58.0682 124.143 57.8086 124.098 57.5375C124.053 57.2663 124.061 56.989 124.124 56.7213C124.186 56.4536 124.3 56.2007 124.46 55.9772C124.62 55.7537 124.822 55.5638 125.056 55.4185C125.289 55.2731 125.548 55.1752 125.82 55.1302L136.556 53.3484C137.103 53.2578 137.664 53.3884 138.115 53.7113C138.566 54.0343 138.871 54.5232 138.962 55.0705C139.053 55.6179 138.922 56.1789 138.6 56.6303C138.277 57.0817 137.788 57.3864 137.241 57.4776ZM125.874 55.4605C125.647 55.4983 125.429 55.5806 125.233 55.7027C125.037 55.8248 124.867 55.9842 124.732 56.172C124.461 56.5512 124.352 57.0227 124.428 57.4826C124.504 57.9426 124.76 58.3534 125.139 58.6247C125.519 58.8959 125.99 59.0054 126.45 58.9291L137.186 57.1473C137.646 57.0708 138.057 56.8149 138.328 56.4357C138.599 56.0565 138.709 55.5851 138.632 55.1252C138.556 54.6653 138.3 54.2546 137.921 53.9833C137.542 53.712 137.07 53.6025 136.61 53.6787L125.874 55.4605Z" fill="#CCCCCC"/>
<path d="M141.21 23.6198L111.645 28.5267C111.623 28.5304 111.601 28.5297 111.579 28.5248C111.558 28.5199 111.537 28.5107 111.519 28.4979C111.502 28.4852 111.486 28.4689 111.475 28.4503C111.463 28.4316 111.455 28.4107 111.451 28.389C111.448 28.3673 111.449 28.345 111.454 28.3236C111.459 28.3021 111.468 28.2819 111.481 28.264C111.493 28.2461 111.51 28.2309 111.528 28.2193C111.547 28.2077 111.568 28.1999 111.59 28.1963L141.155 23.2895C141.177 23.2858 141.199 23.2864 141.221 23.2914C141.242 23.2963 141.263 23.3054 141.28 23.3182C141.298 23.331 141.314 23.3472 141.325 23.3659C141.337 23.3846 141.345 23.4054 141.348 23.4271C141.352 23.4489 141.351 23.4711 141.346 23.4926C141.341 23.514 141.332 23.5343 141.319 23.5522C141.306 23.5701 141.29 23.5853 141.271 23.5969C141.253 23.6085 141.232 23.6163 141.21 23.6198Z" fill="#3F3D56"/>
<path d="M114.857 26.554C115.504 26.554 116.029 26.0293 116.029 25.382C116.029 24.7347 115.504 24.21 114.857 24.21C114.209 24.21 113.685 24.7347 113.685 25.382C113.685 26.0293 114.209 26.554 114.857 26.554Z" fill="#EEB7D6"/>
<path d="M138.201 20.8276L134.897 21.3759C134.854 21.383 134.809 21.3725 134.773 21.3466C134.737 21.3208 134.713 21.2817 134.705 21.238C134.698 21.1943 134.708 21.1495 134.734 21.1134C134.76 21.0774 134.799 21.053 134.843 21.0455L138.146 20.4973C138.19 20.4902 138.234 20.5007 138.27 20.5265C138.306 20.5524 138.331 20.5914 138.338 20.6351C138.345 20.6788 138.335 20.7237 138.309 20.7597C138.283 20.7958 138.245 20.8202 138.201 20.8276Z" fill="#3F3D56"/>
<path d="M138.366 21.8188L135.062 22.3671C135.019 22.3742 134.974 22.3637 134.938 22.3378C134.902 22.312 134.878 22.2729 134.87 22.2292C134.863 22.1855 134.874 22.1407 134.899 22.1046C134.925 22.0686 134.964 22.0442 135.008 22.0367L138.311 21.4885C138.355 21.4814 138.4 21.4919 138.436 21.5177C138.472 21.5436 138.496 21.5826 138.503 21.6263C138.51 21.6701 138.5 21.7149 138.474 21.7509C138.448 21.787 138.41 21.8114 138.366 21.8188Z" fill="#3F3D56"/>
<path d="M138.53 22.8102L135.227 23.3585C135.205 23.3622 135.183 23.3615 135.161 23.3566C135.14 23.3516 135.119 23.3425 135.101 23.3297C135.084 23.3169 135.068 23.3007 135.057 23.2821C135.045 23.2634 135.037 23.2426 135.034 23.2208C135.03 23.1991 135.031 23.1768 135.036 23.1554C135.041 23.1339 135.05 23.1137 135.063 23.0958C135.076 23.0779 135.092 23.0627 135.11 23.0511C135.129 23.0395 135.15 23.0317 135.172 23.0281L138.475 22.4799C138.497 22.4762 138.519 22.4769 138.541 22.4818C138.562 22.4867 138.582 22.4958 138.6 22.5086C138.618 22.5214 138.634 22.5376 138.645 22.5563C138.657 22.575 138.665 22.5958 138.668 22.6176C138.672 22.6393 138.671 22.6615 138.666 22.683C138.661 22.7045 138.652 22.7247 138.639 22.7426C138.626 22.7605 138.61 22.7757 138.591 22.7873C138.573 22.7989 138.552 22.8067 138.53 22.8102Z" fill="#3F3D56"/>
<path d="M28.4316 46.4118H15.8743C15.497 46.4114 15.1353 46.2613 14.8685 45.9945C14.6017 45.7277 14.4516 45.366 14.4512 44.9886V32.264C14.4516 31.8867 14.6017 31.5249 14.8685 31.2581C15.1353 30.9913 15.497 30.8412 15.8743 30.8408H28.4316C28.8089 30.8412 29.1706 30.9913 29.4374 31.2581C29.7042 31.5249 29.8543 31.8867 29.8547 32.264V44.9886C29.8543 45.366 29.7042 45.7277 29.4374 45.9945C29.1706 46.2613 28.8089 46.4114 28.4316 46.4118Z" fill="#EEB7D6"/>
<path d="M27.51 55.8723H16.6271C16.072 55.8723 15.5397 55.6518 15.1472 55.2593C14.7547 54.8668 14.5342 54.3345 14.5342 53.7794C14.5342 53.2243 14.7547 52.692 15.1472 52.2995C15.5397 51.907 16.072 51.6865 16.6271 51.6865H27.51C28.0651 51.6865 28.5974 51.907 28.9899 52.2995C29.3824 52.692 29.6029 53.2243 29.6029 53.7794C29.6029 54.3345 29.3824 54.8668 28.9899 55.2593C28.5974 55.6518 28.0651 55.8723 27.51 55.8723ZM16.6271 52.0214C16.1608 52.0214 15.7136 52.2066 15.3839 52.5363C15.0543 52.866 14.869 53.3131 14.869 53.7794C14.869 54.2457 15.0543 54.6928 15.3839 55.0225C15.7136 55.3522 16.1608 55.5374 16.6271 55.5374H27.51C27.9762 55.5374 28.4234 55.3522 28.7531 55.0225C29.0828 54.6928 29.268 54.2457 29.268 53.7794C29.268 53.3131 29.0828 52.866 28.7531 52.5363C28.4234 52.2066 27.9762 52.0214 27.51 52.0214H16.6271Z" fill="#3F3D56"/>
<path d="M29.5192 46.1612C29.4972 46.1613 29.4754 46.157 29.4551 46.1485C29.4348 46.1401 29.4163 46.1278 29.4008 46.1122L14.667 31.3784C14.6513 31.3628 14.6388 31.3444 14.6302 31.324C14.6217 31.3037 14.6173 31.2818 14.6172 31.2597C14.6171 31.2377 14.6214 31.2158 14.6298 31.1954C14.6383 31.175 14.6506 31.1564 14.6662 31.1408C14.6818 31.1252 14.7004 31.1129 14.7208 31.1044C14.7412 31.096 14.7631 31.0917 14.7852 31.0918C14.8072 31.0919 14.8291 31.0963 14.8494 31.1049C14.8698 31.1134 14.8883 31.1259 14.9038 31.1416L29.6376 45.8754C29.661 45.8988 29.6769 45.9287 29.6834 45.9612C29.6899 45.9936 29.6865 46.0273 29.6739 46.0579C29.6612 46.0885 29.6397 46.1146 29.6122 46.133C29.5847 46.1514 29.5523 46.1612 29.5192 46.1612Z" fill="white"/>
<path d="M14.7846 46.1612C14.7515 46.1612 14.7191 46.1514 14.6916 46.133C14.6641 46.1146 14.6426 46.0885 14.6299 46.0579C14.6173 46.0273 14.6139 45.9936 14.6204 45.9612C14.6269 45.9287 14.6428 45.8988 14.6662 45.8754L29.4 31.1416C29.4155 31.1259 29.434 31.1134 29.4544 31.1049C29.4747 31.0963 29.4966 31.0919 29.5186 31.0918C29.5407 31.0917 29.5626 31.096 29.583 31.1044C29.6034 31.1129 29.622 31.1252 29.6376 31.1408C29.6532 31.1564 29.6656 31.175 29.674 31.1954C29.6824 31.2158 29.6867 31.2377 29.6866 31.2597C29.6865 31.2818 29.6821 31.3037 29.6736 31.324C29.665 31.3444 29.6525 31.3628 29.6368 31.3784L14.903 46.1122C14.8875 46.1278 14.869 46.1401 14.8487 46.1485C14.8284 46.1569 14.8066 46.1613 14.7846 46.1612Z" fill="white"/>
<path d="M144.134 63.2705C144.211 63.0192 144.233 62.754 144.197 62.4936C144.161 62.2331 144.068 61.9837 143.925 61.763C143.782 61.5422 143.593 61.3555 143.37 61.2159C143.147 61.0763 142.896 60.9873 142.635 60.9551L134.041 50.9121L132.036 53.0169L140.597 62.6463C140.572 63.0883 140.71 63.5242 140.985 63.8712C141.26 64.2183 141.652 64.4525 142.088 64.5294C142.524 64.6063 142.973 64.5207 143.35 64.2887C143.727 64.0566 144.006 63.6944 144.134 63.2705Z" fill="#A0616A"/>
<path d="M136.531 53.0276L133.459 55.2729C133.371 55.3368 133.271 55.3811 133.165 55.4028C133.059 55.4245 132.949 55.423 132.844 55.3986C132.738 55.3741 132.639 55.3272 132.554 55.2611C132.468 55.1949 132.398 55.1111 132.347 55.0153L130.582 51.6574C130.257 51.2083 130.124 50.6489 130.212 50.1019C130.299 49.5549 130.6 49.0649 131.048 48.7393C131.496 48.4138 132.056 48.2792 132.603 48.3652C133.15 48.4512 133.641 48.7507 133.968 49.198L136.623 51.8904C136.699 51.9675 136.757 52.0601 136.794 52.1619C136.831 52.2636 136.846 52.3722 136.837 52.4801C136.828 52.588 136.797 52.6928 136.744 52.7872C136.691 52.8817 136.618 52.9637 136.531 53.0276Z" fill="#EEB7D6"/>
<path d="M130.602 46.3182C132.873 46.3182 134.714 44.4771 134.714 42.206C134.714 39.9349 132.873 38.0938 130.602 38.0938C128.33 38.0938 126.489 39.9349 126.489 42.206C126.489 44.4771 128.33 46.3182 130.602 46.3182Z" fill="#A0616A"/>
<path d="M132.388 60.7587C132.346 60.7587 132.303 60.7552 132.261 60.7481L125.045 59.5336C124.872 59.5046 124.714 59.4156 124.599 59.2819C124.484 59.1483 124.42 58.9786 124.417 58.8024C124.395 57.1516 124.519 52.9845 126.136 49.9494C126.642 49.0007 127.475 48.268 128.48 47.8875C129.486 47.5071 130.595 47.5049 131.603 47.8812C132.61 48.2576 133.446 48.9869 133.955 49.9336C134.465 50.8803 134.613 51.9798 134.373 53.0277C133.832 55.3591 133.418 57.7184 133.134 60.0949C133.112 60.2775 133.024 60.4458 132.887 60.5681C132.749 60.6904 132.572 60.7582 132.388 60.7587Z" fill="#2F2E41"/>
<path d="M117.261 47.2175C117.281 47.3079 117.295 47.3997 117.301 47.4921L124.493 51.6414L126.241 50.635L128.105 53.0748L125.183 55.1572C124.947 55.3254 124.663 55.4126 124.373 55.4055C124.083 55.3985 123.804 55.2976 123.576 55.1181L116.16 49.2671C115.825 49.391 115.46 49.41 115.115 49.3217C114.769 49.2334 114.458 49.0419 114.224 48.7727C113.989 48.5035 113.843 48.1693 113.803 47.8146C113.763 47.4599 113.832 47.1016 114.001 46.7872C114.17 46.4727 114.431 46.2172 114.748 46.0545C115.066 45.8918 115.426 45.8297 115.78 45.8765C116.133 45.9232 116.465 46.0765 116.729 46.3161C116.994 46.5556 117.179 46.87 117.261 47.2175Z" fill="#A0616A"/>
<path d="M124.592 51.2274C124.614 51.1213 124.658 51.0211 124.722 50.9337C124.786 50.8463 124.868 50.7737 124.963 50.7209L128.263 48.8754C128.702 48.537 129.257 48.3862 129.806 48.4562C130.356 48.5262 130.855 48.8113 131.195 49.2488C131.534 49.6864 131.686 50.2408 131.618 50.7904C131.55 51.3401 131.266 51.8402 130.829 52.1811L128.198 54.9138C128.123 54.9918 128.032 55.0526 127.931 55.0923C127.83 55.1319 127.722 55.1494 127.614 55.1434C127.506 55.1375 127.4 55.1084 127.304 55.058C127.209 55.0076 127.125 54.9371 127.059 54.8514L124.734 51.8387C124.668 51.753 124.621 51.654 124.597 51.5485C124.572 51.443 124.571 51.3335 124.592 51.2274Z" fill="#EEB7D6"/>
<path d="M121.109 97.6401H119.056L118.573 89.7483L121.109 89.7227L121.109 97.6401Z" fill="#A0616A"/>
<path d="M121.633 99.6298L115.015 99.6296V99.5459C115.015 99.2075 115.081 98.8725 115.211 98.56C115.34 98.2474 115.53 97.9634 115.769 97.7242C116.008 97.485 116.292 97.2953 116.605 97.1658C116.918 97.0363 117.252 96.9697 117.591 96.9697L121.633 96.9699L121.633 99.6298Z" fill="#2F2E41"/>
<path d="M140.699 97.6401H138.646L137.67 89.7227H140.699L140.699 97.6401Z" fill="#A0616A"/>
<path d="M141.222 99.6298L134.604 99.6296V99.5459C134.604 99.2075 134.67 98.8725 134.8 98.56C134.929 98.2474 135.119 97.9634 135.358 97.7242C135.597 97.485 135.881 97.2953 136.194 97.1658C136.506 97.0363 136.841 96.9697 137.18 96.9697L141.222 96.9699L141.222 99.6298Z" fill="#2F2E41"/>
<path d="M138.366 93.534C138.21 93.5336 138.057 93.4849 137.93 93.3946C137.802 93.3043 137.706 93.1767 137.654 93.0294L131.112 74.3397C131.087 74.2681 131.043 74.2047 130.985 74.1562C130.927 74.1077 130.856 74.076 130.781 74.0644C130.706 74.0528 130.629 74.0618 130.559 74.0904C130.489 74.1191 130.428 74.1662 130.382 74.2269L124.001 82.7346C123.952 82.8011 123.917 82.8772 123.898 82.9581L121.865 92.0294C121.829 92.1906 121.741 92.3354 121.614 92.4416C121.487 92.5478 121.329 92.6095 121.164 92.6172L118.729 92.7279C118.624 92.7333 118.519 92.7163 118.421 92.6781C118.323 92.64 118.234 92.5815 118.161 92.5065C118.087 92.432 118.029 92.3428 117.991 92.2447C117.954 92.1467 117.937 92.0418 117.942 91.9369L118.367 83.6571C118.501 80.9786 119.191 78.3573 120.393 75.9601C123.066 70.63 124.613 64.8065 124.937 58.8525L124.942 58.7598L132.435 59.9519L133.559 61.5093C134.061 62.2119 134.605 62.8837 135.188 63.5211C136.62 65.0742 137.05 67.1514 137.159 68.6203C137.299 70.4257 137.554 72.2202 137.924 73.9929L141.64 92.2531C141.668 92.3568 141.673 92.4652 141.656 92.5711C141.638 92.677 141.598 92.778 141.539 92.8672C141.479 92.9565 141.401 93.0319 141.31 93.0885C141.218 93.1452 141.116 93.1816 141.01 93.1955L138.462 93.5278C138.43 93.532 138.398 93.534 138.366 93.534Z" fill="#2F2E41"/>
<path d="M135.149 39.3518C134.822 38.3616 134.581 37.3452 134.428 36.3138C134.38 35.7133 134.534 35.0672 134.971 34.6528C135.79 33.8775 137.18 34.2468 138.036 34.9806C139.273 36.0411 139.89 37.671 140.123 39.2835C140.356 40.8961 140.254 42.5359 140.31 44.1643C140.366 45.7927 140.599 47.467 141.429 48.869C142.259 50.271 143.8 51.3471 145.425 51.2278C146.081 51.1924 146.703 50.9284 147.185 50.4818C147.421 50.2569 147.6 49.9786 147.707 49.6702C147.814 49.3618 147.845 49.0323 147.798 48.7094C148.629 50.1966 148.208 52.2122 146.969 53.3813C145.73 54.5504 143.824 54.8809 142.196 54.3817C140.567 53.8826 139.227 52.631 138.426 51.1275C137.626 49.624 137.332 47.8872 137.375 46.1843C137.407 44.8767 137.63 43.5583 137.409 42.2691C137.188 40.9798 136.381 39.6707 135.108 39.3671L135.149 39.3518Z" fill="#2F2E41"/>
<path d="M129.435 41.0468C129.218 41.7715 128.389 42.2183 127.642 42.0958C126.896 41.9732 126.282 41.3585 126.055 40.6369C125.85 39.8998 125.934 39.1123 126.29 38.4351C126.486 38.0291 126.76 37.6658 127.097 37.366C127.433 37.0661 127.826 36.8356 128.252 36.6876C128.68 36.5457 129.136 36.5088 129.582 36.58C130.027 36.6512 130.449 36.8284 130.812 37.0967C130.85 36.9339 130.932 36.7843 131.047 36.6634C131.163 36.5424 131.309 36.4545 131.469 36.4087C131.793 36.3213 132.135 36.3264 132.457 36.4232C133.383 36.6871 134.185 37.2707 134.721 38.0703C135.25 38.8674 135.6 39.7698 135.747 40.7153C135.999 42.1332 135.906 43.6826 135.11 44.8826C134.314 46.0827 132.684 46.7912 131.363 46.2191C131.28 45.7978 131.476 45.3736 131.701 45.0085C131.927 44.6434 132.195 44.2877 132.282 43.8673C132.369 43.4468 132.202 42.9325 131.796 42.7951C131.449 42.6777 131.079 42.8678 130.713 42.8907C130.506 42.9038 130.298 42.862 130.112 42.7696C129.925 42.6772 129.767 42.5374 129.651 42.3643C129.536 42.1911 129.468 41.9907 129.455 41.7832C129.442 41.5756 129.483 41.3682 129.575 41.1817L129.435 41.0468Z" fill="#2F2E41"/>
<path d="M159.665 99.7392H95.8745C95.8301 99.7392 95.7875 99.7215 95.7561 99.6901C95.7247 99.6587 95.707 99.6161 95.707 99.5717C95.707 99.5273 95.7247 99.4847 95.7561 99.4533C95.7875 99.4219 95.8301 99.4043 95.8745 99.4043H159.665C159.71 99.4043 159.752 99.4219 159.784 99.4533C159.815 99.4847 159.833 99.5273 159.833 99.5717C159.833 99.6161 159.815 99.6587 159.784 99.6901C159.752 99.7215 159.71 99.7392 159.665 99.7392Z" fill="#CCCCCC"/>
</g>
<defs>
<clipPath id="clip0_1096_1589">
<rect width="159" height="80.7553" fill="white" transform="translate(7 19)"/>
</clipPath>
</defs>
</svg>
