<svg width="169" height="110" viewBox="0 0 169 110" fill="none" xmlns="http://www.w3.org/2000/svg">
<rect width="169" height="110" fill="white"/>
<g clip-path="url(#clip0_1096_1587)">
<path d="M137.193 88.4157C136.733 84.7115 134.437 81.0619 130.904 79.8564C132.297 83.6691 132.297 87.8516 130.903 91.664C130.361 93.1323 129.604 94.7089 130.115 96.1888C130.432 97.1096 131.209 97.8141 132.078 98.2546C132.947 98.6951 133.911 98.9051 134.863 99.1108L135.051 99.2658C136.562 95.8528 137.654 92.1198 137.193 88.4157Z" fill="#F0F0F0"/>
<path d="M130.87 79.9259C132.927 82.231 134.206 85.1257 134.525 88.1989C134.605 88.8592 134.581 89.5281 134.453 90.1809C134.307 90.8128 133.995 91.3942 133.55 91.8649C133.143 92.312 132.674 92.7223 132.383 93.2606C132.238 93.5384 132.154 93.8436 132.135 94.1564C132.116 94.4692 132.164 94.7823 132.275 95.0754C132.532 95.8128 133.038 96.4139 133.554 96.9845C134.127 97.618 134.732 98.2669 134.976 99.1068C135.005 99.2085 135.162 99.1568 135.132 99.0552C134.708 97.594 133.29 96.764 132.614 95.4479C132.298 94.8338 132.165 94.1208 132.461 93.4725C132.72 92.9057 133.202 92.4822 133.618 92.033C134.06 91.5802 134.384 91.0262 134.563 90.4193C134.724 89.7752 134.774 89.1083 134.711 88.4474C134.593 86.9571 134.241 85.4946 133.669 84.1135C133.025 82.5336 132.115 81.0756 130.979 79.8026C130.909 79.7238 130.8 79.8477 130.87 79.9259Z" fill="white"/>
<path d="M134.48 87.2038C134.988 87.0804 135.436 86.7803 135.743 86.3571C136.051 85.9339 136.198 85.4152 136.158 84.8936C136.15 84.788 135.986 84.7961 135.994 84.9018C136.032 85.3874 135.895 85.8706 135.608 86.2641C135.32 86.6576 134.902 86.9355 134.428 87.0476C134.325 87.0721 134.377 87.2282 134.48 87.2038Z" fill="white"/>
<path d="M133.785 91.6654C132.867 91.1171 132.189 90.243 131.887 89.2172C131.857 89.1156 131.7 89.1673 131.73 89.2688C132.047 90.3357 132.754 91.2439 133.711 91.8123C133.802 91.8664 133.875 91.7192 133.785 91.6654Z" fill="white"/>
<path d="M132.872 82.6894C132.685 82.7782 132.48 82.8191 132.273 82.8087C132.067 82.7982 131.866 82.7366 131.689 82.6294C131.599 82.5741 131.525 82.7214 131.615 82.7763C131.811 82.8938 132.033 82.9616 132.261 82.9737C132.489 82.9858 132.717 82.9418 132.924 82.8457C132.944 82.8382 132.961 82.8234 132.97 82.8041C132.98 82.7848 132.982 82.7625 132.976 82.7417C132.969 82.7211 132.954 82.704 132.935 82.6942C132.915 82.6844 132.893 82.6827 132.872 82.6894Z" fill="white"/>
<path d="M120.137 86.472C120.192 86.5081 120.248 86.5442 120.303 86.5817C121.047 87.0709 121.75 87.6197 122.405 88.2228C122.457 88.2686 122.508 88.3158 122.558 88.3631C124.121 89.8328 125.397 91.5799 126.322 93.5156C126.69 94.2862 126.998 95.0837 127.244 95.901C127.584 97.0298 127.863 98.2808 128.537 99.2041C128.606 99.3013 128.681 99.394 128.762 99.4818H134.847C134.861 99.4749 134.875 99.4693 134.889 99.4624L135.132 99.4735C135.122 99.4305 135.111 99.386 135.101 99.343C135.096 99.318 135.089 99.293 135.083 99.268C135.079 99.2514 135.075 99.2347 135.072 99.2194C135.071 99.2139 135.07 99.2083 135.068 99.2041C135.065 99.1889 135.061 99.175 135.058 99.1611C134.997 98.9126 134.934 98.664 134.87 98.4155C134.87 98.4141 134.87 98.4141 134.868 98.4127C134.37 96.5203 133.709 94.6528 132.786 92.945C132.758 92.8936 132.73 92.8408 132.699 92.7895C132.279 92.022 131.797 91.2901 131.257 90.6013C130.96 90.225 130.645 89.864 130.311 89.5196C129.449 88.6316 128.452 87.8847 127.357 87.3064C125.174 86.154 122.647 85.7125 120.314 86.4164C120.255 86.4345 120.196 86.4525 120.137 86.472Z" fill="#F0F0F0"/>
<path d="M120.15 86.5486C123.181 87.1505 125.945 88.6919 128.049 90.954C128.511 91.4329 128.894 91.9816 129.185 92.5799C129.449 93.1718 129.551 93.8238 129.478 94.4681C129.422 95.0701 129.295 95.6796 129.387 96.2847C129.438 96.5937 129.555 96.8884 129.728 97.1494C129.901 97.4104 130.128 97.6318 130.393 97.7991C131.042 98.2331 131.809 98.4079 132.564 98.5528C133.403 98.7137 134.277 98.8676 134.977 99.3915C135.062 99.455 135.155 99.3197 135.071 99.2563C133.853 98.3447 132.22 98.536 130.888 97.8924C130.266 97.5921 129.731 97.1026 129.577 96.4069C129.442 95.7985 129.572 95.1699 129.634 94.5608C129.714 93.9333 129.64 93.2958 129.417 92.7039C129.157 92.0927 128.796 91.5302 128.347 91.0403C127.356 89.9214 126.195 88.9653 124.906 88.207C123.441 87.3335 121.837 86.7171 120.163 86.3846C120.06 86.364 120.048 86.5282 120.15 86.5486Z" fill="white"/>
<path d="M127.414 90.1871C127.746 89.7825 127.923 89.2732 127.914 88.7502C127.904 88.2271 127.709 87.7244 127.364 87.3318C127.293 87.2526 127.167 87.358 127.237 87.4373C127.56 87.8023 127.741 88.2706 127.749 88.7577C127.757 89.2448 127.59 89.7185 127.279 90.0934C127.212 90.175 127.347 90.2682 127.414 90.1871Z" fill="white"/>
<path d="M129.546 94.1671C128.483 94.2822 127.416 93.9923 126.557 93.3553C126.472 93.2921 126.378 93.4274 126.463 93.4905C127.358 94.1517 128.47 94.4511 129.576 94.329C129.681 94.3172 129.651 94.1554 129.546 94.1671Z" fill="white"/>
<path d="M123.413 87.5499C123.317 87.7332 123.177 87.8899 123.006 88.0058C122.835 88.1218 122.638 88.1934 122.432 88.2142C122.326 88.2246 122.357 88.3864 122.461 88.3761C122.688 88.352 122.906 88.2726 123.096 88.1449C123.285 88.0173 123.44 87.8451 123.548 87.6436C123.56 87.6254 123.564 87.6035 123.56 87.5822C123.556 87.561 123.545 87.542 123.527 87.5291C123.509 87.5168 123.487 87.5121 123.466 87.516C123.444 87.5199 123.425 87.5321 123.413 87.5499Z" fill="white"/>
<path d="M110.337 23.3265L37.7091 10.0201C37.5612 9.99164 37.4092 9.99343 37.262 10.0253C37.1286 10.0546 37.0033 10.1131 36.8952 10.1967C36.7895 10.2791 36.7045 10.3849 36.6469 10.5059C36.5856 10.6365 36.5544 10.7792 36.5557 10.9235V75.9899C36.5544 76.1342 36.5854 76.277 36.6467 76.4077C36.7042 76.5287 36.7891 76.6346 36.8946 76.7171C37.0026 76.8007 37.1279 76.8593 37.2613 76.8887C37.4084 76.9207 37.5605 76.9226 37.7084 76.8942L110.337 63.5877C110.397 63.5753 110.453 63.547 110.498 63.5057C110.552 63.4582 110.596 63.4019 110.63 63.3391C110.669 63.2675 110.699 63.1911 110.718 63.1118C110.74 63.0255 110.751 62.937 110.751 62.848V24.0684C110.751 23.9792 110.74 23.8904 110.719 23.8039C110.699 23.7245 110.669 23.648 110.63 23.5764C110.596 23.5137 110.552 23.4573 110.499 23.4098C110.453 23.3685 110.397 23.3402 110.337 23.3278L110.337 23.3265Z" fill="#E4E4E4"/>
<path d="M111.448 23.3265L38.8204 10.0201C38.6726 9.99164 38.5205 9.99343 38.3733 10.0253C38.2399 10.0546 38.1146 10.1131 38.0065 10.1967C37.9009 10.2791 37.8159 10.3849 37.7583 10.5059C37.6969 10.6365 37.6658 10.7792 37.667 10.9235V75.9899C37.6657 76.1342 37.6968 76.277 37.758 76.4077C37.8155 76.5287 37.9004 76.6346 38.006 76.7171C38.114 76.8007 38.2392 76.8593 38.3726 76.8887C38.5198 76.9207 38.6719 76.9226 38.8197 76.8942L111.448 63.5877C111.509 63.5753 111.564 63.547 111.61 63.5057C111.663 63.4582 111.707 63.4019 111.741 63.3391C111.781 63.2675 111.81 63.1911 111.83 63.1118C111.851 63.0255 111.862 62.937 111.862 62.848V24.0684C111.862 23.9792 111.851 23.8904 111.83 23.8039C111.81 23.7245 111.781 23.648 111.741 23.5764C111.708 23.5137 111.663 23.4573 111.61 23.4098C111.564 23.3685 111.509 23.3402 111.448 23.3278L111.448 23.3265Z" fill="white"/>
<path d="M111.448 23.3265L38.8204 10.0201C38.6726 9.99164 38.5205 9.99343 38.3733 10.0253C38.2399 10.0546 38.1146 10.1131 38.0065 10.1967C37.9009 10.2791 37.8159 10.3849 37.7583 10.5059C37.6969 10.6365 37.6658 10.7792 37.667 10.9235V75.9899C37.6657 76.1342 37.6968 76.277 37.758 76.4077C37.8155 76.5287 37.9004 76.6346 38.006 76.7171C38.114 76.8007 38.2392 76.8593 38.3726 76.8887C38.5198 76.9207 38.6719 76.9226 38.8197 76.8942L111.448 63.5877C111.509 63.5753 111.564 63.547 111.61 63.5057C111.663 63.4582 111.707 63.4019 111.741 63.3391C111.781 63.2675 111.81 63.1911 111.83 63.1118C111.851 63.0255 111.862 62.937 111.862 62.848V24.0684C111.862 23.9792 111.851 23.8904 111.83 23.8039C111.81 23.7245 111.781 23.648 111.741 23.5764C111.708 23.5137 111.663 23.4573 111.61 23.4098C111.564 23.3685 111.509 23.3402 111.448 23.3278L111.448 23.3265ZM111.725 62.8715C111.725 62.931 111.717 62.9903 111.703 63.0481C111.69 63.101 111.67 63.1521 111.644 63.1999C111.621 63.2417 111.592 63.2793 111.556 63.3109C111.526 63.3384 111.489 63.3572 111.449 63.3654L38.8211 76.5242C38.7226 76.5429 38.6213 76.5415 38.5233 76.52C38.4345 76.5004 38.3512 76.4613 38.2793 76.4055C38.2091 76.3505 38.1527 76.28 38.1144 76.1994C38.0737 76.1126 38.0531 76.0177 38.0539 75.9218V10.9927C38.053 10.8968 38.0737 10.8019 38.1143 10.715C38.1524 10.6344 38.2089 10.5637 38.2791 10.5087C38.3508 10.4529 38.4341 10.4137 38.5229 10.394C38.6208 10.3724 38.7222 10.371 38.8207 10.3897L111.449 23.5489C111.489 23.5571 111.526 23.5759 111.556 23.6034C111.592 23.635 111.621 23.6726 111.644 23.7144C111.67 23.7622 111.69 23.8131 111.703 23.8661C111.718 23.9238 111.725 23.9831 111.725 24.0427V62.8713L111.725 62.8715Z" fill="#CACACA"/>
<path d="M26.0001 30.3085C25.9966 29.8646 26.0905 29.4253 26.2751 29.0217C26.4477 28.6488 26.7028 28.3199 27.021 28.06C27.3414 27.8002 27.7154 27.6146 28.1161 27.5167C28.5496 27.4121 29.0001 27.3986 29.4392 27.4769C29.8997 27.5571 30.3415 27.7211 30.7428 27.9608C31.1392 28.1966 31.4941 28.4962 31.7932 28.8474C32.0897 29.1936 32.3267 29.5868 32.4943 30.0107C32.6614 30.4313 32.7482 30.8796 32.7501 31.3322C32.7532 31.7603 32.6661 32.1842 32.4943 32.5763C32.3331 32.9407 32.0937 33.2651 31.7932 33.5268C31.4885 33.7904 31.1301 33.9843 30.7428 34.095C30.3191 34.2146 29.8752 34.2448 29.4392 34.1835C28.9748 34.1196 28.5263 33.9697 28.1168 33.7415C27.7054 33.5132 27.3353 33.2172 27.0221 32.866C26.7077 32.5156 26.4554 32.1139 26.2761 31.6785C26.0964 31.244 26.0027 30.7787 26.0001 30.3085Z" fill="#E4E4E4"/>
<path d="M26.0001 43.7773C25.9966 43.3334 26.0905 42.8941 26.2751 42.4904C26.4477 42.1175 26.7028 41.7887 27.021 41.5288C27.3414 41.2689 27.7154 41.0834 28.1161 40.9855C28.5496 40.8809 29.0001 40.8673 29.4392 40.9456C29.8997 41.0258 30.3415 41.1898 30.7428 41.4295C31.1392 41.6654 31.4941 41.965 31.7932 42.3162C32.0897 42.6624 32.3267 43.0555 32.4943 43.4794C32.6614 43.9001 32.7482 44.3483 32.7501 44.801C32.7532 45.229 32.6661 45.6529 32.4943 46.045C32.3331 46.4094 32.0937 46.7339 31.7932 46.9956C31.4885 47.2591 31.1301 47.453 30.7428 47.5637C30.3191 47.6833 29.8752 47.7135 29.4392 47.6523C28.9748 47.5883 28.5263 47.4384 28.1168 47.2102C27.7054 46.9819 27.3353 46.686 27.0221 46.3348C26.7077 45.9843 26.4554 45.5827 26.2761 45.1472C26.0964 44.7127 26.0027 44.2475 26.0001 43.7773Z" fill="#E4E4E4"/>
<path d="M26.0001 57.245C25.9966 56.8011 26.0905 56.3619 26.2751 55.9582C26.4477 55.5853 26.7028 55.2565 27.021 54.9966C27.3414 54.7367 27.7154 54.5511 28.1161 54.4532C28.5496 54.3487 29.0001 54.3351 29.4392 54.4134C29.8997 54.4936 30.3415 54.6576 30.7428 54.8973C31.1392 55.1332 31.4941 55.4327 31.7932 55.7839C32.0897 56.1302 32.3267 56.5233 32.4943 56.9472C32.6614 57.3679 32.7482 57.8161 32.7501 58.2687C32.7532 58.6968 32.6661 59.1207 32.4943 59.5128C32.3331 59.8772 32.0937 60.2017 31.7932 60.4633C31.4885 60.7269 31.1301 60.9208 30.7428 61.0315C30.3191 61.1511 29.8752 61.1813 29.4392 61.1201C28.9748 61.0561 28.5263 60.9062 28.1168 60.678C27.7054 60.4497 27.3353 60.1538 27.0221 59.8026C26.7077 59.4521 26.4554 59.0505 26.2761 58.615C26.0964 58.1805 26.0027 57.7152 26.0001 57.245Z" fill="#E4E4E4"/>
<path d="M26.8331 30.3085C26.8296 29.8646 26.9235 29.4253 27.1082 29.0217C27.2807 28.6488 27.5358 28.3199 27.854 28.06C28.1744 27.8002 28.5484 27.6146 28.9491 27.5167C29.3826 27.4121 29.8331 27.3986 30.2722 27.4769C30.7327 27.5571 31.1745 27.7211 31.5758 27.9608C31.9722 28.1966 32.3271 28.4962 32.6262 28.8474C32.9227 29.1936 33.1597 29.5868 33.3273 30.0107C33.4944 30.4313 33.5812 30.8796 33.5831 31.3322C33.5862 31.7603 33.4991 32.1842 33.3273 32.5763C33.1661 32.9407 32.9267 33.2651 32.6262 33.5268C32.3216 33.7904 31.9631 33.9843 31.5758 34.095C31.1521 34.2146 30.7082 34.2448 30.2722 34.1835C29.8078 34.1196 29.3593 33.9697 28.9498 33.7415C28.5384 33.5132 28.1683 33.2172 27.8551 32.866C27.5407 32.5156 27.2884 32.1139 27.1091 31.6785C26.9294 31.244 26.8357 30.7787 26.8331 30.3085Z" fill="#EEB7D6"/>
<path d="M26.833 43.6851C26.8309 43.2346 26.9247 42.7889 27.1081 42.3774C27.2823 41.9898 27.5365 41.6435 27.854 41.3611C28.1716 41.0789 28.5445 40.8661 28.9491 40.7363C29.376 40.6004 29.8263 40.5536 30.2721 40.5987C30.7274 40.6433 31.17 40.7748 31.5757 40.9862C31.9709 41.1918 32.3265 41.4657 32.6261 41.7953C32.9237 42.1211 33.1611 42.4972 33.3273 42.906C33.4956 43.3203 33.5824 43.7631 33.5829 44.2102C33.5848 44.6444 33.4978 45.0744 33.3271 45.4737C33.1635 45.8537 32.9237 46.196 32.6224 46.4795C32.3211 46.763 31.9648 46.9816 31.5756 47.1218C31.1582 47.2718 30.7146 47.3346 30.272 47.3066C29.8131 47.2784 29.364 47.1615 28.9496 46.9623C28.1223 46.5645 27.4681 45.8792 27.1092 45.0344C26.9283 44.6075 26.8344 44.1487 26.833 43.6851Z" fill="#EEB7D6"/>
<path d="M26.833 57.0615C26.8324 56.6134 26.9226 56.1698 27.0981 55.7574C27.2735 55.345 27.5306 54.9725 27.8539 54.6621C28.2515 54.2815 28.7358 54.0034 29.2649 53.8518C29.794 53.7002 30.352 53.6797 30.8908 53.7922C31.4296 53.9046 31.933 54.1465 32.3573 54.497C32.7817 54.8475 33.1144 55.296 33.3266 55.8039C33.5351 56.3093 33.6167 56.8581 33.5642 57.4023C33.5117 57.9465 33.3267 58.4696 33.0254 58.9258C32.724 59.382 32.3155 59.7574 31.8355 60.0193C31.3556 60.2812 30.8188 60.4215 30.2721 60.428C29.6028 60.4378 28.9455 60.2496 28.3828 59.8871C27.82 59.5246 27.377 59.0039 27.1092 58.3904C26.927 57.9711 26.833 57.5187 26.833 57.0615Z" fill="#EEB7D6"/>
<path d="M28.9313 30.2933L29.9396 30.4482V29.4541C29.9391 29.4111 29.9479 29.3684 29.9654 29.3291C29.9818 29.2928 30.0061 29.2606 30.0366 29.235C30.0675 29.2093 30.1036 29.1908 30.1424 29.1807C30.1848 29.1699 30.2289 29.168 30.272 29.1751C30.3176 29.1825 30.3616 29.1982 30.4015 29.2215C30.4414 29.2446 30.4771 29.2742 30.5073 29.309C30.5375 29.3435 30.5616 29.3828 30.5788 29.4252C30.596 29.4673 30.605 29.5123 30.6054 29.5578V30.5506L31.5945 30.7023C31.6394 30.7094 31.6826 30.7248 31.722 30.7477C31.8008 30.7935 31.862 30.8642 31.8961 30.9488C31.9128 30.9906 31.9216 31.0352 31.9218 31.0803C31.9221 31.1228 31.9133 31.165 31.8961 31.204C31.8801 31.2399 31.8564 31.2719 31.8266 31.2975C31.7964 31.3232 31.7609 31.3419 31.7226 31.3523C31.6811 31.3633 31.6377 31.3656 31.5952 31.3589L30.6047 31.2108V32.2013C30.605 32.2443 30.5961 32.2869 30.5786 32.3263C30.5622 32.3627 30.5379 32.3951 30.5075 32.4211C30.4768 32.4471 30.4407 32.466 30.4019 32.4766C30.3598 32.488 30.3157 32.4906 30.2725 32.4841C30.2269 32.4775 30.183 32.4624 30.1429 32.4397C30.103 32.4171 30.0672 32.388 30.0369 32.3536C30.0067 32.3194 29.9825 32.2804 29.9654 32.2381C29.9484 32.1959 29.9396 32.1507 29.9396 32.1052V31.1111L28.9313 30.9597C28.885 30.9526 28.8403 30.937 28.7997 30.9138C28.7592 30.8907 28.7228 30.8611 28.6921 30.8262C28.6615 30.7917 28.6369 30.7524 28.6194 30.7098C28.602 30.6672 28.593 30.6216 28.5928 30.5755C28.5924 30.5321 28.6015 30.4892 28.6194 30.4496C28.6362 30.4129 28.661 30.3805 28.6921 30.3546C28.7234 30.3285 28.7602 30.3095 28.7997 30.2991C28.8427 30.2881 28.8875 30.2861 28.9313 30.2933Z" fill="white"/>
<path d="M29.6387 44.8407L32.4386 45.0437H32.4489L31.1358 42.6597C31.1277 42.6447 31.116 42.632 31.1018 42.6225C31.0949 42.6178 31.0874 42.6141 31.0795 42.6113C31.0716 42.6084 31.0633 42.6066 31.0549 42.6058C31.0467 42.6051 31.0385 42.6055 31.0305 42.6069C31.0227 42.6084 31.0152 42.6109 31.0081 42.6144C30.994 42.6214 30.9822 42.6324 30.9741 42.646L30.0806 44.1147L30.0376 44.1853L29.6387 44.8407Z" fill="white"/>
<path d="M28.04 44.7254L30.5104 44.9045L30.0369 44.1858L30.0028 44.1339L29.3818 43.1913C29.3709 43.1767 29.3571 43.1643 29.3414 43.1549C29.3338 43.1504 29.3258 43.1466 29.3174 43.1435C29.3088 43.1404 29.2999 43.1383 29.2908 43.137C29.282 43.1358 29.2731 43.1354 29.2642 43.136C29.2556 43.1366 29.2471 43.1381 29.2388 43.1405C29.2307 43.1428 29.2228 43.1461 29.2154 43.1502C29.2079 43.1543 29.2009 43.1592 29.1945 43.1649L29.1925 43.1674L29.1898 43.1699L29.1877 43.1726L29.1857 43.1752L28.04 44.7254Z" fill="white"/>
<path d="M29.9084 42.2673C29.9654 42.2722 30.0209 42.288 30.0718 42.3139C30.1218 42.3393 30.1669 42.3734 30.205 42.4146C30.243 42.4555 30.2734 42.5029 30.2947 42.5545C30.3163 42.6067 30.3275 42.6627 30.3276 42.7192C30.3279 42.7739 30.3166 42.8281 30.2947 42.8783C30.2739 42.9258 30.2433 42.9683 30.205 43.0033C30.1665 43.0383 30.1212 43.0649 30.0718 43.0814C30.0193 43.099 29.9636 43.1056 29.9084 43.1007C29.8514 43.096 29.7958 43.0803 29.7447 43.0545C29.6945 43.0292 29.6492 42.9952 29.6109 42.954C29.5726 42.913 29.542 42.8655 29.5205 42.8137C29.4987 42.7613 29.4874 42.7051 29.4873 42.6482C29.4871 42.5933 29.4984 42.5389 29.5205 42.4886C29.5415 42.441 29.5723 42.3985 29.6109 42.3636C29.6497 42.3288 29.6952 42.3024 29.7447 42.2861C29.7974 42.2687 29.8531 42.2623 29.9084 42.2673Z" fill="white"/>
<path d="M60.123 51.7702L87.8478 25.4648L87.9666 25.6731L60.2963 51.9927L60.123 51.7702Z" fill="#E6E6E6"/>
<path d="M60.1279 21.9553L60.3018 21.7471L87.9646 50.4639L87.8453 50.6617L60.1279 21.9553Z" fill="#E6E6E6"/>
<path d="M87.5682 25.0819L60.6182 21.3794C60.4936 21.3616 60.3666 21.3724 60.2468 21.4111C60.1328 21.4487 60.0287 21.5115 59.9423 21.5949C59.853 21.6812 59.7827 21.7852 59.7361 21.9004C59.6851 22.0274 59.6593 22.1631 59.6602 22.3V51.3104C59.6598 51.4491 59.6856 51.5867 59.7361 51.7159C59.7832 51.836 59.8531 51.9458 59.9422 52.0391C60.028 52.129 60.1318 52.1999 60.2467 52.2474C60.3643 52.2955 60.4912 52.3167 60.6181 52.3096L87.5682 50.8253C87.6592 50.8193 87.7473 50.7907 87.8244 50.742C87.906 50.6905 87.9768 50.6234 88.0326 50.5447C88.0943 50.4586 88.1417 50.3631 88.1729 50.2619C88.2071 50.1519 88.2245 50.0374 88.2244 49.9222V26.038C88.2243 25.9214 88.2069 25.8055 88.1729 25.6941C88.1412 25.5894 88.094 25.4902 88.0326 25.3997C87.9767 25.3163 87.9061 25.2436 87.8244 25.1852C87.7483 25.131 87.6606 25.0956 87.5682 25.0819ZM60.6182 52.011C60.5276 52.0159 60.4371 52.0006 60.3532 51.9661C60.2712 51.932 60.1972 51.8812 60.136 51.8169C60.0725 51.7501 60.0226 51.6715 59.9891 51.5856C59.9531 51.4935 59.9347 51.3954 59.935 51.2964V22.3359C59.9344 22.2384 59.9528 22.1417 59.9891 22.0512C60.0222 21.9688 60.0723 21.8944 60.136 21.8326C60.1976 21.7731 60.2718 21.7283 60.3532 21.7014C60.4386 21.6736 60.5292 21.6657 60.6182 21.6782L87.5682 25.3306C87.6342 25.3403 87.697 25.3656 87.7513 25.4044C87.8098 25.4459 87.8604 25.4977 87.9005 25.5572C87.9444 25.6218 87.9782 25.6927 88.0008 25.7675C88.0252 25.8472 88.0377 25.9301 88.0378 26.0134V49.932C88.0379 50.0144 88.0254 50.0963 88.0008 50.1749C87.9785 50.2473 87.9446 50.3156 87.9005 50.3771C87.8604 50.4333 87.8098 50.4812 87.7513 50.5179C87.6962 50.5525 87.6332 50.5726 87.5682 50.5766L60.6182 52.011Z" fill="#E6E6E6"/>
<path d="M59.724 55.3729C59.6523 55.3807 59.584 55.4073 59.5258 55.4498C59.4616 55.4969 59.4071 55.5559 59.365 55.6235C59.3173 55.6991 59.2811 55.7813 59.2579 55.8676C59.2321 55.9618 59.2196 56.0591 59.2208 56.1567C59.2213 56.2502 59.2354 56.3431 59.2624 56.4326C59.286 56.5113 59.3226 56.5854 59.3707 56.652C59.4127 56.7105 59.4671 56.759 59.53 56.794C59.5894 56.8265 59.6568 56.8417 59.7244 56.8377L106.905 52.931C106.942 52.9279 106.978 52.9117 107.004 52.8854C107.039 52.8525 107.067 52.8135 107.086 52.7704C107.111 52.7173 107.13 52.6613 107.142 52.6038C107.156 52.5372 107.163 52.4694 107.164 52.4013C107.164 52.334 107.158 52.2668 107.145 52.2007C107.134 52.1445 107.117 52.09 107.092 52.0384C107.073 51.9972 107.046 51.9603 107.012 51.9302C106.985 51.906 106.95 51.8929 106.913 51.8936H106.905L59.724 55.3729Z" fill="#E6E6E6"/>
<path d="M59.724 59.8203C59.6519 59.8302 59.5837 59.8586 59.5258 59.9026C59.4617 59.9513 59.4072 60.0114 59.365 60.08C59.3174 60.1567 59.2813 60.2399 59.2579 60.327C59.2321 60.4218 59.2196 60.5197 59.2208 60.6179C59.2213 60.7111 59.2353 60.8036 59.2624 60.8927C59.2859 60.9705 59.3225 61.0438 59.3707 61.1092C59.4126 61.1665 59.467 61.2135 59.5297 61.2468C59.5895 61.2778 59.657 61.2911 59.7241 61.2852L106.905 56.0804C106.943 56.0761 106.978 56.059 107.004 56.032C107.039 55.9982 107.067 55.9585 107.086 55.9147C107.112 55.8608 107.13 55.8041 107.142 55.7458C107.156 55.679 107.163 55.611 107.164 55.5427C107.164 55.4755 107.158 55.4084 107.145 55.3425C107.135 55.2868 107.117 55.2327 107.092 55.1817C107.073 55.1412 107.046 55.1052 107.012 55.0762C106.984 55.0526 106.949 55.0404 106.913 55.0422H106.904L59.724 59.8203Z" fill="#E6E6E6"/>
<path d="M59.724 64.1925C59.6516 64.2045 59.5834 64.2347 59.5258 64.2802C59.4617 64.3307 59.4072 64.3923 59.365 64.4621C59.3174 64.5398 59.2814 64.624 59.2579 64.712C59.2321 64.8071 59.2196 64.9053 59.2208 65.0038C59.2212 65.0965 59.2353 65.1886 59.2624 65.2773C59.2857 65.3543 59.3224 65.4265 59.3707 65.4908C59.4126 65.547 59.4671 65.5927 59.5297 65.6241C59.59 65.6536 59.6575 65.6651 59.7241 65.6573L106.905 59.1756C106.943 59.1701 106.978 59.1522 107.004 59.1245C107.039 59.0898 107.066 59.0493 107.086 59.0049C107.111 58.9505 107.13 58.8933 107.142 58.8346C107.156 58.7676 107.163 58.6993 107.164 58.6309C107.164 58.5639 107.158 58.4969 107.145 58.4312C107.135 58.376 107.117 58.3224 107.092 58.2718C107.073 58.2319 107.046 58.1966 107.012 58.1685C106.984 58.1456 106.949 58.1344 106.913 58.1371H106.904L59.724 64.1925Z" fill="#E6E6E6"/>
<path d="M31.6182 55.6526L28.9249 55.6203C28.88 55.6188 28.8351 55.6251 28.7924 55.6391C28.7511 55.6526 28.7125 55.6731 28.6782 55.6998C28.644 55.7263 28.6146 55.7586 28.5915 55.7952C28.5678 55.8327 28.5511 55.8743 28.5422 55.9178C28.5333 55.9697 28.536 56.023 28.5501 56.0738C28.5572 56.0992 28.567 56.1237 28.5793 56.147C28.6045 56.1944 28.6397 56.2358 28.6825 56.2682C28.7466 56.3168 28.8248 56.3435 28.9053 56.3442L29.7153 56.3515C29.7535 56.3518 29.7908 56.3631 29.8226 56.3843C29.8545 56.4054 29.8794 56.4354 29.8945 56.4705C29.9046 56.4943 29.9097 56.5198 29.9097 56.5456V58.1346C29.9077 58.2223 29.9369 58.3079 29.9922 58.376C30.0475 58.4444 30.1251 58.4911 30.2114 58.5079C30.2897 58.521 30.37 58.5082 30.4403 58.4713C30.5105 58.4343 30.5667 58.3754 30.6002 58.3035C30.6223 58.2562 30.6338 58.2046 30.6338 58.1523V56.5501C30.6338 56.5251 30.6388 56.5003 30.6483 56.4772C30.6579 56.4541 30.672 56.4332 30.6896 56.4155C30.7073 56.3978 30.7283 56.3838 30.7514 56.3743C30.7745 56.3647 30.7993 56.3598 30.8243 56.3598L30.8261 56.3598L31.5999 56.366C31.6863 56.3687 31.7709 56.3408 31.8386 56.2871C31.9063 56.2333 31.9527 56.1573 31.9696 56.0726C31.9781 56.0213 31.9754 55.9687 31.9617 55.9186C31.9481 55.8684 31.9237 55.8218 31.8903 55.7819C31.857 55.742 31.8154 55.7098 31.7684 55.6875C31.7214 55.6652 31.6702 55.6533 31.6182 55.6526Z" fill="white"/>
<path d="M31.6181 57.7939C31.6949 57.7939 31.7697 57.8186 31.8313 57.8644C31.893 57.9102 31.9382 57.9746 31.9604 58.0482C31.9826 58.1217 31.9805 58.2004 31.9545 58.2726C31.9284 58.3449 31.8798 58.4068 31.8158 58.4493C31.7518 58.4917 31.6759 58.5125 31.5992 58.5084C31.5225 58.5043 31.4492 58.4756 31.39 58.4266C31.3309 58.3776 31.2892 58.3108 31.2709 58.2362C31.2527 58.1616 31.259 58.0831 31.2889 58.0124C31.3161 57.9475 31.3619 57.8922 31.4205 57.8534C31.479 57.8145 31.5478 57.7938 31.6181 57.7939Z" fill="white"/>
<path d="M94.7439 36.7364C94.7314 36.8334 94.7113 36.9291 94.6838 37.0229L100.298 43.7452L102.395 43.3839L103.354 46.4772L99.704 47.4776C99.4091 47.5584 99.096 47.5414 98.8116 47.4291C98.5272 47.3168 98.287 47.1153 98.1268 46.8548L92.9089 38.3659C92.5324 38.367 92.1646 38.2534 91.8542 38.0403C91.5439 37.8272 91.3058 37.5246 91.1716 37.1729C91.0374 36.8211 91.0135 36.4369 91.103 36.0712C91.1925 35.7056 91.3912 35.3758 91.6727 35.1259C91.9542 34.8759 92.3051 34.7175 92.6788 34.6719C93.0525 34.6262 93.4312 34.6954 93.7646 34.8703C94.098 35.0451 94.3703 35.3173 94.5452 35.6507C94.7202 35.984 94.7894 36.3627 94.7439 36.7364Z" fill="#FFB6B6"/>
<path d="M100.546 43.3709C100.606 43.2737 100.687 43.1906 100.782 43.1273C100.877 43.0639 100.984 43.0218 101.097 43.0039L105.036 42.3757C105.593 42.1999 106.198 42.2522 106.716 42.5212C107.235 42.7902 107.626 43.2539 107.803 43.8107C107.981 44.3674 107.93 44.9718 107.662 45.4912C107.395 46.0107 106.932 46.4028 106.376 46.5817L102.777 48.3314C102.674 48.3813 102.562 48.4085 102.448 48.4112C102.334 48.4138 102.22 48.3918 102.115 48.3466C102.011 48.3015 101.917 48.2343 101.84 48.1495C101.763 48.0648 101.706 47.9646 101.672 47.8557L100.465 44.0276C100.43 43.9187 100.42 43.8037 100.434 43.6903C100.448 43.577 100.486 43.468 100.546 43.3709Z" fill="#3F3D56"/>
<path d="M100.767 97.8226H99.0646L98.2549 91.2568L100.767 91.257L100.767 97.8226Z" fill="#FFB6B6"/>
<path d="M101.202 99.4725L95.7129 99.4723V99.4029C95.7129 98.8363 95.938 98.293 96.3387 97.8923C96.7393 97.4917 97.2827 97.2666 97.8492 97.2666L101.202 97.2667L101.202 99.4725Z" fill="#2F2E41"/>
<path d="M118.539 97.8226H116.837L116.027 91.2568L118.54 91.257L118.539 97.8226Z" fill="#FFB6B6"/>
<path d="M118.973 99.4725L113.484 99.4723V99.4029C113.484 98.8363 113.71 98.293 114.11 97.8923C114.511 97.4917 115.054 97.2666 115.621 97.2666L118.973 97.2667L118.973 99.4725Z" fill="#2F2E41"/>
<path d="M101.431 57.8288L108.807 55.6973C111.494 57.6031 113.35 61.4233 112.749 66.3661C111.781 74.3314 117.386 84.573 119.804 94.9502L115.623 95.0815L106.469 73.1744L101.103 95.5376L97.3682 95.6549L99.8654 64.8633L101.431 57.8288Z" fill="#2F2E41"/>
<path d="M104.715 38.4577C106.823 38.4577 108.531 36.7493 108.531 34.6419C108.531 32.5345 106.823 30.8262 104.715 30.8262C102.608 30.8262 100.899 32.5345 100.899 34.6419C100.899 36.7493 102.608 38.4577 104.715 38.4577Z" fill="#FFB6B6"/>
<path d="M100.833 51.6085C99.9895 50.128 99.5728 48.33 100.307 46.7923C100.492 46.4052 100.996 46.0392 101.26 45.7009L104.208 41.3051L107.537 40.7695C110.418 43.1858 107.957 51.4408 110.317 56.8558L100.459 62.132C101.164 59.4409 102.115 53.8583 100.833 51.6085Z" fill="#3F3D56"/>
<path d="M100.877 33.1139C100.877 33.1139 101.135 32.6353 102.682 33.2527C103.223 33.4688 103.477 33.4191 103.512 33.8894C103.637 35.6591 104.285 37.3518 105.372 38.7538L105.384 38.7689L106.157 38.0633L107.151 38.8572L111.349 38.9454C111.349 38.9454 112.012 35.6818 109.802 31.9773C107.593 28.2727 103.064 30.3014 103.064 30.3014C99.9706 30.4778 100.877 33.1139 100.877 33.1139Z" fill="#2F2E41"/>
<path d="M91.1346 28.2362L64.1846 24.5337C64.06 24.5159 63.933 24.5267 63.8132 24.5654C63.6992 24.603 63.5951 24.6658 63.5087 24.7492C63.4194 24.8355 63.3491 24.9395 63.3025 25.0547C63.2515 25.1817 63.2257 25.3174 63.2266 25.4543V54.4647C63.2262 54.6034 63.252 54.741 63.3025 54.8702C63.3496 54.9903 63.4195 55.1001 63.5086 55.1934C63.5945 55.2833 63.6982 55.3542 63.8131 55.4017C63.9307 55.4498 64.0576 55.471 64.1845 55.4639L91.1346 53.9796C91.2256 53.9736 91.3137 53.945 91.3908 53.8963C91.4724 53.8448 91.5432 53.7777 91.599 53.699C91.6607 53.6129 91.7081 53.5174 91.7393 53.4162C91.7735 53.3062 91.7909 53.1917 91.7908 53.0765V29.1923C91.7907 29.0757 91.7733 28.9598 91.7393 28.8483C91.7076 28.7437 91.6604 28.6445 91.599 28.554C91.5431 28.4705 91.4725 28.3979 91.3908 28.3395C91.3148 28.2853 91.227 28.2499 91.1346 28.2362Z" fill="#EEB7D6"/>
<path opacity="0.2" d="M91.1346 28.2362L64.1846 24.5337C64.06 24.5159 63.933 24.5267 63.8132 24.5654C63.6992 24.603 63.5951 24.6658 63.5087 24.7492C63.4194 24.8355 63.3491 24.9395 63.3025 25.0547C63.2515 25.1817 63.2257 25.3174 63.2266 25.4543V54.4647C63.2262 54.6034 63.252 54.741 63.3025 54.8702C63.3496 54.9903 63.4195 55.1001 63.5086 55.1934C63.5945 55.2833 63.6982 55.3542 63.8131 55.4017C63.9307 55.4498 64.0576 55.471 64.1845 55.4639L91.1346 53.9796C91.2256 53.9736 91.3137 53.945 91.3908 53.8963C91.4724 53.8448 91.5432 53.7777 91.599 53.699C91.6607 53.6129 91.7081 53.5174 91.7393 53.4162C91.7735 53.3062 91.7909 53.1917 91.7908 53.0765V29.1923C91.7907 29.0757 91.7733 28.9598 91.7393 28.8483C91.7076 28.7437 91.6604 28.6445 91.599 28.554C91.5431 28.4705 91.4725 28.3979 91.3908 28.3395C91.3148 28.2853 91.227 28.2499 91.1346 28.2362Z" fill="black"/>
<path d="M92.245 28.2362L65.295 24.5337C65.1704 24.5159 65.0434 24.5267 64.9236 24.5654C64.8095 24.603 64.7055 24.6658 64.6191 24.7492C64.5297 24.8355 64.4595 24.9395 64.4129 25.0547C64.3619 25.1817 64.3361 25.3174 64.3369 25.4543V54.4647C64.3365 54.6034 64.3623 54.741 64.4129 54.8702C64.4599 54.9903 64.5299 55.1001 64.6189 55.1934C64.7048 55.2833 64.8085 55.3542 64.9234 55.4017C65.0411 55.4498 65.1679 55.471 65.2948 55.4639L92.245 53.9796C92.336 53.9736 92.424 53.945 92.5011 53.8963C92.5828 53.8448 92.6535 53.7777 92.7094 53.699C92.7711 53.6129 92.8184 53.5174 92.8496 53.4162C92.8839 53.3062 92.9013 53.1917 92.9011 53.0765V29.1923C92.901 29.0757 92.8837 28.9598 92.8496 28.8483C92.818 28.7437 92.7707 28.6445 92.7094 28.554C92.6534 28.4705 92.5829 28.3979 92.5011 28.3395C92.4251 28.2853 92.3373 28.2499 92.245 28.2362Z" fill="#EEB7D6"/>
<path d="M92.1292 51.429C92.2026 51.4936 92.2707 51.5639 92.333 51.6391L101.046 50.7485L101.92 48.8086L105.02 49.7451L103.807 53.3297C103.709 53.6193 103.519 53.8693 103.267 54.0421C103.015 54.2149 102.713 54.3013 102.408 54.2882L92.4527 53.8616C92.2429 54.1742 91.9429 54.4155 91.5926 54.5534C91.2423 54.6914 90.8583 54.7194 90.4917 54.6337C90.1251 54.5481 89.7933 54.3529 89.5403 54.074C89.2874 53.7952 89.1254 53.446 89.0757 53.0728C89.0261 52.6996 89.0913 52.3202 89.2626 51.9849C89.4339 51.6497 89.7032 51.3746 90.0347 51.1961C90.3662 51.0177 90.7441 50.9444 91.1183 50.986C91.4924 51.0276 91.845 51.1821 92.1292 51.429Z" fill="#FFB6B6"/>
<path d="M100.875 50.3329C100.828 50.2288 100.804 50.1158 100.805 50.0016C100.805 49.8874 100.831 49.7747 100.879 49.6712L102.563 46.0553C102.729 45.4951 103.11 45.0236 103.624 44.7442C104.137 44.4648 104.74 44.4004 105.301 44.565C105.861 44.7296 106.334 45.1098 106.615 45.6223C106.895 46.1348 106.961 46.7377 106.798 47.2989L106.234 51.2606C106.218 51.3736 106.178 51.4819 106.116 51.578C106.054 51.6741 105.973 51.7557 105.877 51.8174C105.78 51.8791 105.672 51.9193 105.559 51.9353C105.446 51.9514 105.331 51.9429 105.221 51.9104L101.373 50.7684C101.264 50.7359 101.163 50.6802 101.077 50.6051C100.991 50.5299 100.922 50.4371 100.875 50.3329Z" fill="#3F3D56"/>
<path d="M141.861 99.6205H88.9611C88.9243 99.6205 88.889 99.6058 88.8629 99.5798C88.8369 99.5538 88.8223 99.5184 88.8223 99.4816C88.8223 99.4448 88.8369 99.4095 88.8629 99.3834C88.889 99.3574 88.9243 99.3428 88.9611 99.3428H141.861C141.898 99.3428 141.934 99.3574 141.96 99.3834C141.986 99.4095 142 99.4448 142 99.4816C142 99.5184 141.986 99.5538 141.96 99.5798C141.934 99.6058 141.898 99.6205 141.861 99.6205Z" fill="#CACACA"/>
</g>
<defs>
<clipPath id="clip0_1096_1587">
<rect width="116" height="89.6208" fill="white" transform="translate(26 10)"/>
</clipPath>
</defs>
</svg>
